<svg width="550" height="550" viewBox="0 0 550 550" fill="none" xmlns="http://www.w3.org/2000/svg">
<path d="M14.7905 515.437C9.31673 510.583 33.6378 510.942 45.6418 510.718C47.3703 513.145 48.6427 513.19 51.7638 513.751C53.2042 517.459 20.2643 520.29 14.7905 515.437Z" fill="black"/>
<path d="M201.946 148.543C200.833 152.571 200.003 165.661 204.374 176.403" stroke="black" stroke-width="3.37993" stroke-linecap="round"/>
<path d="M198.404 179.035C208.778 175.318 228.533 170.768 228.533 183.628V185.859C228.533 187.366 230.254 188.22 231.444 187.297C248.098 174.394 281.983 148.543 293.923 128.975" stroke="black" stroke-width="3.37993" stroke-linecap="round"/>
<path d="M244.377 79.5566C254.568 87.5799 270.385 104.898 255.012 111.943C254.11 112.356 253.613 113.355 253.87 114.307C256.894 125.508 256.416 148.637 232.951 164.3C232.602 164.533 232.333 164.879 232.206 165.278L227.591 179.719" stroke="black" stroke-width="3.37993" stroke-linecap="round"/>
<path d="M234.29 138.593C233.928 140.185 234.868 143.475 241.52 143.899" stroke="black" stroke-width="3.37993" stroke-linecap="round"/>
<path d="M252.134 96.8012C252.134 100.289 251.079 103.357 249.484 105.5C247.89 107.642 245.87 108.741 243.842 108.741C241.815 108.741 239.795 107.642 238.2 105.5C236.606 103.357 235.551 100.289 235.551 96.8012C235.551 93.3129 236.606 90.2453 238.2 88.1025C239.795 85.9607 241.815 84.8613 243.842 84.8613C245.87 84.8613 247.89 85.9607 249.484 88.1025C251.079 90.2453 252.134 93.3129 252.134 96.8012Z" stroke="black" stroke-width="3.37993" stroke-linecap="round"/>
<path d="M213.662 107.416L234.225 100.119" stroke="black" stroke-width="3.37993" stroke-linecap="round"/>
<path d="M229.581 93.487C230.105 91.2763 232.032 86.1901 235.551 83.5371" stroke="black" stroke-width="3.37993" stroke-linecap="round"/>
<path d="M244.838 98.7925C246.303 98.7925 247.491 97.9015 247.491 96.8025C247.491 95.7034 246.303 94.8125 244.838 94.8125C243.372 94.8125 242.185 95.7034 242.185 96.8025C242.185 97.9015 243.372 98.7925 244.838 98.7925Z" fill="black"/>
<path d="M235.813 316.364C234.592 303.324 233.614 274.549 239.479 263.767C245.343 252.984 250.977 237.561 254.94 231.322C268.266 223.628 300.025 194.113 320.456 137.598" stroke="black" stroke-width="3.37993" stroke-linecap="round"/>
<path d="M198.404 178.392L122.121 267.941" stroke="black" stroke-width="3.37993" stroke-linecap="round"/>
<path d="M122.121 268.216C127.777 267.452 142.479 267.823 156.05 275.422C173.015 284.92 190.977 301.625 235.55 316.364" stroke="black" stroke-width="3.37993" stroke-linecap="round"/>
<path d="M235.551 316.364L220.295 326.977" stroke="black" stroke-width="3.37993" stroke-linecap="round"/>
<path d="M122.132 267.941C121.099 271.145 120.073 278.615 128.757 287.841" stroke="black" stroke-width="3.37993" stroke-linecap="round"/>
<path d="M177.841 202.935C165.497 213.217 134.195 234.91 107.743 239.421C101.571 241.964 90.9464 249.106 97.8238 257.332C104.701 265.559 109.287 275.576 110.72 279.556C111.822 283.205 114.565 288.292 121.179 276.617" stroke="black" stroke-width="3.37993" stroke-linecap="round"/>
<path d="M100.232 260.646C95.1075 263.668 83.157 269.442 76.353 268.367C69.5491 267.293 65.0131 270.158 63.5956 271.725C62.8323 272.956 62.3526 275.485 66.5396 275.754C70.7266 276.022 75.6988 275.865 77.6614 275.754" stroke="black" stroke-width="3.37993" stroke-linecap="round"/>
<path d="M82.9862 271.258C80.6909 273.83 72.887 279.675 60.0334 282.481C57.5196 282.948 54.1312 285.637 58.7219 288.793C62.6566 291.248 73.5427 289.004 79.0515 285.637" stroke="black" stroke-width="3.37993" stroke-linecap="round"/>
<path d="M78.9908 285.188C74.775 287.31 67.1866 292.96 70.5592 298.588C71.6402 299.705 76.2018 299.793 85.8008 291.217L92.9352 285.188" stroke="black" stroke-width="3.37993" stroke-linecap="round"/>
<path d="M93.2939 285.316L86.0096 291.4C83.9126 296.922 80.712 310.331 89.3207 302.894C95.6116 296.471 94.2871 290.995 96.936 289.372C99.5848 287.75 105.545 281.485 108.193 278.555" stroke="black" stroke-width="3.37993" stroke-linecap="round"/>
<path d="M93.6059 274.574C92.7235 277.305 92.0175 283.649 96.2532 287.177" stroke="black" stroke-width="3.37993" stroke-linecap="round"/>
<path d="M173.862 498.115C178.035 497.01 186.446 491.416 186.709 477.884C186.973 464.352 192.529 441.07 195.273 431.119L222.285 311.721" stroke="black" stroke-width="3.37993" stroke-linecap="round"/>
<path d="M232.598 120.745C233.532 120.745 234.288 119.989 234.288 119.055C234.288 118.122 233.532 117.365 232.598 117.365C231.665 117.365 230.908 118.122 230.908 119.055C230.908 119.989 231.665 120.745 232.598 120.745Z" fill="black"/>
<path d="M237.241 125.388C238.174 125.388 238.931 124.631 238.931 123.698C238.931 122.764 238.174 122.008 237.241 122.008C236.307 122.008 235.551 122.764 235.551 123.698C235.551 124.631 236.307 125.388 237.241 125.388Z" fill="black"/>
<path d="M227.955 126.715C228.888 126.715 229.645 125.958 229.645 125.025C229.645 124.092 228.888 123.335 227.955 123.335C227.021 123.335 226.265 124.092 226.265 125.025C226.265 125.958 227.021 126.715 227.955 126.715Z" fill="black"/>
<path d="M128.916 109.851C145.037 79.8874 169.107 76.1201 179.128 77.9814C199.939 46.1123 228.679 35.5989 246.187 45.127C260.194 52.749 248.72 71.9582 241.232 80.6102L233.965 70.0969C228.944 79.8218 214.585 76.2295 207.537 74.0392C213.593 86.7429 223.262 119.576 202.912 149.277C182.564 178.978 156.995 179.503 144.111 170.961C132.219 162.529 112.796 139.815 128.916 109.851Z" fill="black"/>
<path d="M120.797 502.095C122.996 505.537 130.319 512.032 142.023 510.483" stroke="black" stroke-width="3.37993" stroke-linecap="round"/>
<path d="M139.229 269.932C135.078 281.804 115.633 306.208 98.2641 336.878C86.6846 356.116 59.0687 399.076 41.2408 417.016C38.8375 420.424 36.5871 428.163 46.812 431.856C54.6773 435.154 58.2167 442.805 59.2654 450.984C60.5762 461.208 77.29 468.792 88.4324 461.208C97.3136 455.161 122.851 411.613 142.143 387.006C147.055 380.74 151.563 375.702 155.287 372.825" stroke="black" stroke-width="3.37993" stroke-linecap="round"/>
<path d="M142.623 387.339L120.797 502.094C131.891 499.135 162.365 493.545 181.16 493.545" stroke="black" stroke-width="3.37993" stroke-linecap="round"/>
<path d="M33.9879 492.611C15.9078 457.564 32.6679 434.241 41.7324 428.466C55.7841 432.886 56.1638 447.618 58.4424 454.617L53.1834 469.018C49.6642 475.211 51.717 487.327 53.1834 492.611C59.2619 517.089 50.0875 519.442 45.5852 512.887L33.9879 492.611Z" fill="black"/>
<path d="M130.388 524.748C124.297 519.925 136.343 518.055 148.565 517.351C152.823 521.158 181.105 522.458 182.485 523.339C169.474 527.568 135.725 528.974 130.388 524.748Z" fill="black"/>
<path d="M191.56 522.684C145.385 529.015 135.801 510.751 136.782 500.074C144.723 496.758 166.56 495.552 176.855 494.799C173.913 501.732 177.589 500.828 180.163 502.712C183.473 504.973 192.663 507.737 197.81 507.988C220.972 509.119 202.835 521.051 191.56 522.684Z" fill="black"/>
<path d="M300.334 70.5849C302.449 69.3688 306.812 68.9266 307.343 76.8865" stroke="black" stroke-width="3.37993" stroke-linecap="round"/>
<path d="M296.066 91.8118C296.286 88.7167 296.066 81.663 293.412 78.2137C290.096 73.9021 289.432 65.6105 296.066 66.2739C298.171 66.4845 299.511 68.2339 300.333 70.5855C301.584 74.1602 301.639 79.1262 301.372 82.1937" stroke="black" stroke-width="3.37993" stroke-linecap="round"/>
<path d="M291.896 100.434C291.627 97.4494 290.494 90.5508 288.106 86.8361C285.121 82.193 284.789 70.2531 291.091 71.5798" stroke="black" stroke-width="3.37993" stroke-linecap="round"/>
<path d="M296.066 122.99C294.407 122.99 290.892 121.398 290.096 115.03C289.3 108.662 286.447 104.638 285.121 103.422C284.347 101.542 283.529 97.6506 286.447 97.1199C288.166 96.8075 290.199 98.4731 291.896 100.437L294.739 104.417" stroke="black" stroke-width="3.37993" stroke-linecap="round"/>
<path d="M311.322 93.4706C312.097 92.0338 312.848 88.363 309.664 85.1791C305.684 81.1992 306.679 77.5509 309.001 76.5559C311.322 75.5609 314.639 76.2242 317.956 86.1741C321.272 94.7972 326.181 116.687 320.609 135.26" stroke="black" stroke-width="3.37993" stroke-linecap="round"/>
<path d="M326.474 41.5745L331.678 32.1133" stroke="black" stroke-width="3.37993" stroke-linecap="round"/>
<path d="M281.474 46.042L290.76 52.0119" stroke="black" stroke-width="3.37993" stroke-linecap="round"/>
<path d="M298.322 22L307.407 42.8887" stroke="black" stroke-width="3.37993" stroke-linecap="round"/>
<path d="M330.479 70.2685C330.479 63.3046 332.099 51.6797 340.523 62.2079C345.706 69.775 347.65 84.8435 343.763 92.4762" stroke="black" stroke-width="3.37993" stroke-linecap="round"/>
<path d="M313.308 76.6824C312.228 72.844 311.689 65.6936 318.168 67.7992L325.295 82.2755" stroke="black" stroke-width="3.37993" stroke-linecap="round"/>
<path d="M325.295 82.2769L318.168 67.8007C317.628 63.5236 320.435 56.6145 327.239 62.2076L330.479 70.2683L333.719 78.3289" stroke="black" stroke-width="3.37993" stroke-linecap="round"/>
<path d="M333.876 102.757C332.107 106.627 330.228 115.426 336.861 119.672" stroke="black" stroke-width="3.37993" stroke-linecap="round"/>
<path d="M342.167 97.1182C343.715 92.6965 348.402 83.9183 354.77 84.1836C361.138 84.4489 356.097 92.8066 354.77 95.7916L345.484 114.033C343.494 119.008 340.509 127.963 347.474 138.244C354.439 147.531 378.456 171.411 404.326 175.391" stroke="black" stroke-width="3.37993" stroke-linecap="round"/>
<path d="M399.545 314.027C401.535 321.102 408.831 337.508 422.098 346.53M378.981 302.418L405.183 310.047L378.981 302.418ZM403.856 323.313C406.73 313.916 410.423 290.611 402.198 272.569C391.916 250.016 385.615 221.161 390.59 201.924C394.57 186.535 409.052 184.235 415.796 185.01C426.409 186.227 444.717 198.939 443.656 233.432C442.329 276.549 432.379 313.363 418.118 341.886L403.856 323.313Z" stroke="black" stroke-width="3.37993" stroke-linecap="round"/>
<path d="M393.243 338.9C393.243 321.986 393.132 310.046 391.253 305.402C416.725 314.954 447.636 312.478 459.907 310.046C460.239 310.82 462.958 318.205 471.184 341.554C481.465 370.74 474.169 468.249 471.184 479.194C468.199 490.139 460.239 490.47 448.631 489.144C439.344 488.082 427.073 462.611 422.098 450.007C398.881 406.56 393.243 358.748 393.243 338.9Z" fill="black"/>
<path d="M483.302 250.703C486.592 258.773 494.034 279.292 497.483 296.804C487.975 303.548 461.234 316.349 429.394 312.369L378.981 302.419C376.991 285.726 376.758 243.207 390.024 205.265C390.024 201.838 393.508 192.24 401.203 187.995" stroke="black" stroke-width="3.37993" stroke-linecap="round"/>
<path d="M480.47 279.534C480.328 277.404 484.259 261.911 483.302 250.702C482.769 244.452 482.087 236.654 481.232 227.154C478.844 200.621 469.402 180.279 464.98 173.425C460.558 166.57 450.095 162.456 441.804 165.441" stroke="black" stroke-width="3.37993" stroke-linecap="round"/>
<path d="M474.105 457.275C476.964 395.068 464.284 336.292 457.255 313.363C474.982 310.97 488.947 303.308 494.069 300.76C499.216 320.167 506.748 369.99 509.845 392.809C517.566 417.798 515.921 453.731 514.134 468.573C515.278 477.612 507.94 481.201 504.127 481.866C483.826 488.512 475.654 468.241 474.105 457.275Z" fill="black"/>
<path d="M312.648 75.5605C318.287 84.626 326.645 106.604 320.277 137.913C320.829 144.657 330.671 166.957 338.187 177.049C349.795 192.637 374.006 210.216 388.931 215.191" stroke="black" stroke-width="3.37993" stroke-linecap="round"/>
<path d="M415.552 170.226C411.164 167.526 378.158 170.129 371.741 128.61C360.755 128.739 354.781 119.74 363.164 115.888C372.099 111.28 371.429 102.82 369.81 97.8352C367.236 91.2982 367.081 84.4346 367.635 82.999" stroke="black" stroke-width="3.37993" stroke-linecap="round"/>
<path d="M380.856 113.687C379.286 113.705 377.991 111.812 377.964 109.457C377.936 107.103 379.186 105.18 380.756 105.161C382.325 105.143 383.62 107.036 383.648 109.391C383.675 111.745 382.425 113.668 380.856 113.687Z" fill="black"/>
<path d="M387.554 99.9131C385.721 97.9543 380.981 95.088 376.686 99.2982" stroke="black" stroke-width="3.37993" stroke-linecap="round"/>
<path d="M400.006 138.066C396.637 143.25 392.939 144.722 385.755 141.377" stroke="black" stroke-width="3.37993" stroke-linecap="round"/>
<path d="M427.583 101.73C428.363 103.445 429.017 107.336 425.389 109.188" stroke="black" stroke-width="3.37993" stroke-linecap="round"/>
<path d="M466.251 84.1294C470.524 107.515 457.15 125.119 447.455 138.652C437.099 133.058 420.128 119.754 426.637 118.318C433.479 116.809 440.695 98.1477 434.051 92.4391C426.255 85.7412 419.229 95.8751 417.89 103.559L411.612 92.7018C413.387 85.1076 414.083 71.7864 402.665 79.2543C391.248 86.7219 374.499 84.766 367.552 82.8544C353.855 73.05 332.573 50.1809 357.029 37.1393C377.37 26.2923 403.838 40.0058 419.995 52.3282C430.936 49.4401 460.423 52.2438 466.251 84.1294Z" fill="black"/>
<path d="M446.694 137.086C441.749 143.039 439.293 147.982 439.599 158.222" stroke="black" stroke-width="3.37993" stroke-linecap="round"/>
<path d="M477.399 528.773C436.272 530.432 416.704 522.181 416.704 516.502C416.704 514.18 415.378 511.859 424.664 508.542C420.684 513.959 422.143 524.263 459.82 522.14C465.9 522.472 479.588 520.88 485.69 511.859H488.675C518.525 504.23 536.103 510.492 536.103 516.17C536.103 521.849 511.56 527.396 477.399 528.773Z" fill="black"/>
<path d="M485.105 511.715C507.32 513.837 510.121 496.016 508.746 486.84" stroke="black" stroke-width="3.37993" stroke-linecap="round"/>
<path d="M455.68 495.462C455.68 496.899 455.348 500.039 454.021 501.1C452.363 502.427 422.513 499.11 423.177 514.035C422.845 516.136 426.162 519.342 434.122 520.337C445.317 521.736 477.41 525.822 485.106 511.713C485.553 510.892 485.919 510.009 486.193 509.06L489.178 496.457" stroke="black" stroke-width="3.37993" stroke-linecap="round"/>
</svg>
