<svg xmlns="http://www.w3.org/2000/svg" fill="none" viewBox="0 0 720 690"><path stroke="#000" stroke-width="3.38" d="M33.18 302.96c4 0 7.23-3.1 7.23-6.93 0-3.82-3.24-6.92-7.23-6.92s-7.22 3.1-7.22 6.92c0 3.83 3.23 6.93 7.22 6.93Z"/><path stroke="#000" stroke-linecap="round" stroke-width="3.38" d="M47.35 296.73c14.57-1.43 37.44.27 40.15 11.07 2.7 10.8-7.62 14.76-13.12 15.38-20.94 3.2-48.7 1.7-48.7-15.38"/><path stroke="#000" stroke-width="3.38" d="M42.08 313.08c.92 0 1.67-.72 1.67-1.6 0-.88-.75-1.6-1.67-1.6-.92 0-1.67.72-1.67 1.6 0 .88.75 1.6 1.67 1.6Zm16.12-1.6c0 .77-.76 1.6-1.95 1.6s-1.94-.83-1.94-1.6c0-.78.75-1.6 1.94-1.6 1.2 0 1.95.82 1.95 1.6Zm12.23 1.6c.92 0 1.67-.72 1.67-1.6 0-.88-.75-1.6-1.67-1.6-.92 0-1.67.72-1.67 1.6 0 .88.75 1.6 1.67 1.6Zm511.14-205.11a6.54 6.54 0 0 0 6.67-6.39c0-3.53-2.99-6.4-6.67-6.4a6.54 6.54 0 0 0-6.67 6.4c0 3.53 2.99 6.4 6.67 6.4Z"/><path stroke="#000" stroke-linecap="round" stroke-width="3.38" d="M594.67 96h25.43c5.32 0 7.88 1.12 7.88 9.02 0 7.67-.06 17.61 0 21.62.05 2.82-1.41 5.95-6.3 6.4-4.9.45-24.5.19-33.7 0-3.42 0-9.47-1.86-9.47-9.4v-8.47m12.79-5.87 12.23 8m0 0 22.23-19.71m-16.6 14.91 6.08 5.86 6.08 5.86m-34.47 0 8.97-11.72m34.64 395.01-4.54 4.36c-2.86 2.74-5.87 1.14-7.01 0l-18.25-16.85c-2.7-2.4-4.97-4.77-15.15-14.08-1.04-1-2.7-3.55-.96-5.77 1.73-2.22 11.46-13.85 16.11-19.39 1.41-1.96 4.48-4.28 8.39-.8 3.37 3 14.91 13.38 24.77 21.28"/><path stroke="#000" stroke-linecap="round" stroke-width="3.38" d="M600.47 456.38c.57 10.1 4.44 26.37 24.46 32.5m26.3.78c-.92-2.23-7.97-4.84-10.63 0-2.74 5-.64 9.2 1.14 10.02 2.28 1.05 5.63 1.6 9.16-4.46"/><path stroke="#000" stroke-linecap="round" stroke-width="3.38" d="M651.8 486.55c-.2 1.17-.4 1.66-.57 3.11-.22 1.9-.36 3.88-.33 5.56.07 2.96.68 5 2.42 4.02 3.47-1.98 5.35-3.6 5.85-5.25.84-2.78.84-8.1-3.85-11.59-5.66-4.2-12.04-4.09-17.06 0-4.98 4.06-6.35 10.56-6.07 13.93.3 3.68 3.17 11.6 12.54 11.73 9.36.12 14.44-4.72 15.22-6.99m-501.97-77.95c-2-7.4-8.63-21.03-19.19-16.42-10.55 4.61-4.4 12.87 0 16.42 2.96 1.92 9.33 3.98 11.1-3.17 1.77-7.14-5.7-10.08-7.8-6.91-1.1 1.25-2.35 4.38 1.5 6.91"/><path stroke="#000" stroke-width="3.38" d="M205.08 67.85a3.38 3.38 0 0 1 4.65-3.7l.24.1 4.97 2.58a6.76 6.76 0 0 0 6.3-.03l4.95-2.64a3.38 3.38 0 0 1 4.93 3.54l-.92 5.53a6.77 6.77 0 0 0 1.98 5.98l4.04 3.89a3.38 3.38 0 0 1-1.84 5.78l-5.55.84a6.77 6.77 0 0 0-5.07 3.73l-2.45 5.04a3.38 3.38 0 0 1-6.07.03l-2.5-5.01c-1-2-2.92-3.37-5.12-3.67l-5.56-.78a3.38 3.38 0 0 1-1.9-5.76l3.99-3.93a6.77 6.77 0 0 0 1.97-5.59l-.06-.41-.98-5.52Z"/><path stroke="#000" stroke-linecap="round" stroke-width="3.38" d="M376.73 316.58v47.25m35.57-41.69v45.03m-83.21 137.16c-11.75 1.4-39.25 6.57-45.27 17.08-1.81 3.16-3.9 10.83 2.16 16.3 6.08 5.47 17.17 4.03 21.96 2.63l27.93-10.78"/><path fill="#000" d="M489.18 424.99c-21.92.68-118.74 45.6-164.4 67.97-3.9 24.65 12.52 42.36 21.21 48.12 45.52-12.66 138.95-38.33 148.5-39.68 9.54-1.35 19-7.88 22.53-10.97 24.75-27.7 6.48-51.23-5.74-59.53-8.7-5.91-16.22-6.1-22.1-5.91Z"/><path fill="#000" d="M283.85 418.7c15.53 1 83.29 26.16 115.39 39.35l-73.42 35.16c-32.86 9.23-53.04 6.2-59.2 4.2-35.58-16.43-21.64-56.96-7.5-71.97 9.1-7.43 19.17-7.09 24.73-6.73Z"/><path stroke="#000" stroke-linecap="round" stroke-width="3.38" d="M456.7 509.12c9.72 4.47 14.96 10.33 17.63 15.13 5.7 12.5-4.54 20.03-16.23 16.5-6.46-1.96-7.99-3.27-11.4-6-1.75-1.37-9.85-8.6-19.11-17.12"/><path fill="#000" d="m270.96 320.84 6.21 112.9a16.92 16.92 0 0 0 16.9 15.98h185.81c9.34 0 16.92-7.58 16.92-16.92V317.32a16.9 16.9 0 0 0-17.15-16.9L287.63 303a16.91 16.91 0 0 0-16.66 17.84Z"/><rect width="220.13" height="10.56" x="276.66" y="451.66" fill="#000" rx="5.28"/><path stroke="#000" stroke-linecap="round" stroke-width="3.38" d="M412.86 241.54c19.36-.28 61.98 14.45 78.93 60.87m-121.46-61.15c-44.2 8.62-65.31 27.52-82 63.93m229.87-19.96 10.84-18.07m0 23.07L543.77 278m-12.51 20.56c2.87 1.12 9.4 2.17 12.5-2.5m-296.84-14.22-16.67-17.23m33.63 14.45-10-25.85m-11.13 38.36-12.5-4.72m272.66 46.74c10.29 16.12 21.96 35.3 0 71.38"/><path fill="#000" d="M413.13 242.93c2.5-7.23.23-12.1-2-13.02-13.34 12.23-33.57 7.7-41.08.28-2.67 2.44-1.1 9.68 0 11.9 14.45 16.01 35.02 7.04 43.08.84Z"/><path stroke="#000" stroke-linecap="round" stroke-width="3.38" d="m353.93 287.4 1.12-1.72a24.12 24.12 0 0 1 29.24-9.2v0a24.12 24.12 0 0 0 27.33-6.68l8.74-10.2m-153.42 84.22c-4.17 9.82-9.12 33.63 4.44 50.3"/><path fill="#000" d="M451.46 129.3c-6.11 21.96-9.17 23.91-18.07 33.64 0-9.62-1.65-25.75-1.65-32.47-29.12 0-53.7-11.9-62.35-17.84.31 20.16-18.59 33.34-18.59 33.34s2.71 8.14 4.26 26.37c1.24 14.57-2.32 11.75-4.26 8.52-5.57-17.98-14.71-13.18-18.59-8.53-47.52-77.21 25.56-92.13 39.5-90.7 10.54-9 25.23-16.05 35.56-17.08 37.24-3.73 54.1 29.15 44.19 64.76Z"/><path stroke="#000" stroke-linecap="round" stroke-width="3.38" d="M351.46 194.6c5 30.55 38.58 52.51 62.81 27.77 24.23-24.74 19.38-70.03 16.8-91.16m-99.4 39.23c-3.06 7.5-.2 24.13 19.79 24.13m-10.98-20c-.44 1.6-.1 5.4 4.86 7.78"/><path stroke="#000" stroke-linecap="round" stroke-width="3.38" d="M430.4 190.69c6.51-2.72 11.1-12.79 9.34-28.9m-46.04 47.24c6.4 1.67 6-2.92 10.84-6.95"/><circle cx="412.79" cy="170.2" r="4.17" fill="#000"/><circle cx="376.1" cy="170.75" r="4.17" fill="#000"/><path stroke="#000" stroke-linecap="round" stroke-width="3.38" d="M367.02 161.22c.88-2.58 4.66-7.36 12.78-5.8m26.13.8c1.94-1.68 7.2-4.03 12.79 0m-26.24 11.68c-.65 5.48-1.09 16.61 2.33 17.23m157.85 234.9c74.21 20.56 207.52 44.19 147.04-25.85-19.09-18.81-47.25-40.86-92.56-60.32m25.85-57.54c46.14-29.55 120.46-90.6 48.64-98.39-71.82-7.78-137.4 19.18-161.2 33.63"/><path stroke="#000" stroke-linecap="round" stroke-width="3.38" d="M454.27 233.13c30.57-65.87 80.05-202.4 33.35-221.52-58.37-23.9-133.97 45.03-195.67 209.57m-68-44.79c-68.37-37.43-207.95-95-219.3-25.85-11.33 69.15 127.21 126.84 197.9 147.03m18.15 36.29C120.92 384.73-4.1 455.07 65.15 491.74c28.35 15 100.9 5.83 134.25-7.79"/><ellipse cx="383.95" cy="666.84" fill="#000" rx="137.58" ry="16.68"/></svg>