<svg width="720" height="720" viewBox="0 0 720 720" fill="none" xmlns="http://www.w3.org/2000/svg">
<g clip-path="url(#clip0_2323_28)">
<path fill-rule="evenodd" clip-rule="evenodd" d="M243.467 383.444C239.949 402.237 246.364 422.904 260.799 435.558C265.934 440.418 272.525 443.447 279.09 446.112C290.848 450.508 304.179 451.969 316.77 449.191C329.343 446.507 341.169 440.08 349.854 430.404C357.466 421.644 362.533 410.589 364 399.195C365.982 384.466 362.389 369.761 355.836 356.888C353.798 352.925 357.021 350.768 362.64 352.354C368.17 353.821 376.04 360.343 378.605 370.909C383.226 389.288 380.467 409.134 371.45 425.576C367.035 433.878 360.884 441.001 353.829 447.247C346.405 452.984 338.266 457.763 329.418 460.39C308.625 466.748 284.715 466.654 264.843 456.013C254.039 450.301 244.64 441.679 238.294 431.182C232.023 420.66 228.267 408.858 227.853 396.8C227.113 381.97 231.108 367.278 238.168 354.624C248.954 335.486 267.439 320.556 289.048 315.64C305.703 311.677 323.969 314.379 338.767 323.327C341.903 325.384 345.245 327.178 348.054 329.717C358.733 338.916 360.144 343.607 358.827 348.172C358.507 349.231 358.3 350.435 357.792 351.269C356.933 352.674 355.159 352.724 352.845 351.67C350.537 350.611 347.759 348.378 344.329 345.594C341.94 343.343 339.156 341.644 336.629 339.65C333.864 338.026 331.255 336.151 328.371 334.872C322.746 332.069 316.864 329.955 310.801 329.184C298.73 327.472 286.12 330.363 275.228 337.054C259.005 346.855 246.709 364.475 243.843 383.475L243.467 383.444Z" fill="#231F20"/>
<path fill-rule="evenodd" clip-rule="evenodd" d="M171.878 381.318C169.476 400.474 171.765 420.064 177.91 438.43C183.767 456.885 194.49 473.495 208.442 486.877C218.751 496.54 230.853 504.265 243.833 510.015C289.37 530.915 347.436 526.125 387.737 494.577C405.596 480.782 419.341 461.531 427.637 440.744C438.384 413.837 439.695 384.039 434.296 355.872C432.478 347.162 436.422 346.861 442.178 353.708C447.709 360.455 454.663 375.492 453.816 394.191C452.838 427.037 440.435 459.405 419.454 484.601C398.598 510.241 368.198 527.354 336.331 533.449C298.368 541.017 256.011 535.913 221.804 515.239C203.162 503.952 186.978 488.213 175.948 469.344C170.436 459.951 165.833 449.956 162.83 439.565C160.93 434.486 160.133 429.081 158.798 423.851C157.913 418.521 157.048 413.16 156.628 407.78C155.399 394.511 156.49 381.136 158.854 368.131C161.218 355.094 165.375 342.434 171.025 330.526C179.315 312.341 191.242 295.919 205.451 281.966C219.572 267.902 236.465 256.727 254.744 249.015C283.074 236.988 315.575 234.479 345.185 244.33C351.788 246.224 357.851 249.065 364.134 251.93C386.545 264.308 391.167 271.789 392.641 277.96C392.935 279.427 393.512 281.126 393.406 282.249C393.224 284.136 390.816 283.929 386.809 281.998C384.809 281.026 382.407 279.621 379.673 277.809C376.826 276.154 373.515 274.279 369.96 271.971C359.118 265.625 347.63 260.32 335.497 257.06C323.344 253.943 310.721 252.695 298.13 253.586C272.941 255.31 248.091 265.638 227.768 281.992C197.663 306.19 176.098 342.547 172.26 381.311L171.878 381.318Z" fill="#231F20"/>
<path fill-rule="evenodd" clip-rule="evenodd" d="M98.9126 366.351C94.4793 396.575 95.8337 427.872 104.738 457.281C109.184 472.004 114.921 486.244 122.509 499.544C129.996 512.895 139.465 525.072 150.087 536.083C165.563 552.299 184.469 564.947 204.522 574.923C239.995 592.638 280.659 599.711 320.415 596.845C360.221 593.973 399.343 580.021 431.511 556.249C460.042 535.136 482.309 505.552 496.211 473.227C514.295 431.521 517.606 384.398 508.984 340.133C506.031 326.426 510.151 326.846 516.873 337.995C523.306 349.038 531.452 372.157 529.709 400.356C528.58 425.2 522.792 449.699 513.725 472.813C504.369 495.826 491.257 517.309 475.148 536.184C458.763 554.964 439.186 570.992 417.434 583.037C395.593 594.883 371.972 603.473 347.554 607.543C333.006 610.233 318.089 611.456 303.102 611.475C288.128 611.5 273.028 610.383 258.161 607.593C243.28 604.878 228.595 600.865 214.404 595.453C200.289 589.872 186.713 582.931 174.047 574.666C146.074 556.613 122.948 531.18 107.165 501.952C91.3001 472.662 83.1671 439.811 81.8001 406.827C81.2232 386.548 82.7909 366.094 87.707 346.404C92.4727 326.708 99.6024 307.652 108.776 289.649C123.061 262.579 142.148 238.042 164.86 217.562C187.861 197.452 214.404 181.28 243.186 171.31C265.56 163.648 289.1 159.659 312.639 160.268C336.167 160.838 359.544 166.018 381.284 175.198C383.685 176.201 386.156 177.023 388.47 178.151L395.355 181.657C399.87 184.121 404.717 186.103 409.012 189.1C425.592 199.29 434.947 208.093 441.5 214.138C447.457 220.829 450.266 225.294 451.79 229.533C452.48 231.464 453.584 233.79 453.69 235.164C453.872 237.49 450.724 236.43 445.081 232.599C442.253 230.68 438.804 228.065 434.816 224.817C430.759 221.644 425.748 218.352 420.444 214.276C404.228 202.927 386.915 192.567 367.934 186.146C349.116 179.456 329.213 175.606 309.053 175.33C268.607 174.439 228.112 189.1 194.558 213.079C169.363 230.718 148.212 254.063 131.614 280.124C115.304 306.373 103.985 335.857 99.2951 366.332L98.9126 366.351Z" fill="#231F20"/>
<path fill-rule="evenodd" clip-rule="evenodd" d="M35.8899 362.701C30.7793 401.309 32.8925 441.165 44.4304 478.587C50.1429 497.324 57.5234 515.446 67.1174 532.452C76.7616 549.42 88.6444 565.059 102.07 579.224C111.701 589.759 122.876 598.745 134.2 607.385C145.889 615.562 157.928 623.294 170.745 629.627C260.427 675.929 375.963 671.051 460.691 614.22C498.296 589.232 528.338 553.239 548.505 513.333C574.283 461.751 583.005 402.488 575.913 345.538C573.374 327.88 577.537 329.153 583.927 343.952C586.981 351.376 590.154 362.318 592.173 375.919C593.897 389.495 594.713 405.754 592.486 423.149C584.987 484.808 557.227 543.777 514.229 588.718C492.84 611.392 467.068 629.69 439.421 643.774C411.693 657.876 381.55 666.737 350.968 671.483C332.614 674.042 313.928 675.29 295.135 674.964C276.342 674.38 257.505 672.317 238.894 668.662C201.803 660.986 165.534 646.815 134.225 625.332C117.006 613.625 100.972 600.049 86.9764 584.567C73.0306 569.053 60.991 551.866 51.1149 533.537C31.2747 496.81 20.8655 455.668 18.7711 414.295C16.0058 363.215 28.246 312.141 50.3059 266.529C67.5125 232.116 90.7889 200.763 118.549 174.188C146.478 147.789 179.286 126.657 214.702 112.328C242.337 101.43 271.551 95.009 301.036 94.0182C330.507 92.9899 360.142 97.511 388.122 107.199C391.219 108.24 394.292 109.275 397.364 110.309C400.424 111.369 403.296 112.868 406.275 114.122C412.138 116.837 418.189 119.245 423.989 122.336C466.611 146.233 476.048 159.753 481.428 168.952C482.588 171.159 484.3 173.837 484.701 175.385C485.366 178 481.578 176.621 474.374 171.937C470.774 169.598 466.316 166.425 461.118 162.499C455.681 158.9 449.373 154.718 442.281 150.021C420.923 136.771 398.111 125.114 373.517 118.21C349.012 111.256 323.302 108.058 297.549 109.275C271.802 110.46 246.086 115.984 221.669 125.371C197.301 134.915 174.257 148.171 153.326 164.236L147.444 168.645C145.525 170.168 143.725 171.849 141.863 173.442L130.751 183.117L120.336 193.558C116.818 196.994 113.394 200.524 110.284 204.349L100.653 215.542C97.6176 219.418 94.7582 223.437 91.7922 227.369C85.6282 235.081 80.8437 243.741 75.3883 251.949C65.7441 269.106 56.6267 286.72 50.4 305.438C46.7192 314.605 44.5119 324.218 41.7905 333.68C40.3984 338.408 39.809 343.318 38.7681 348.121C37.9591 352.969 36.6047 357.741 36.2724 362.657L35.8899 362.701Z" fill="#231F20"/>
<path fill-rule="evenodd" clip-rule="evenodd" d="M463.658 295.415C450.409 303.573 437.184 311.813 424.078 320.234C419.3 323.313 414.867 326.869 410.07 329.904L359.234 362.059C351.753 366.875 344.586 372.205 337.563 377.535C328.584 384.401 319.949 391.976 309.803 397.062C306.749 398.579 304.366 395.036 304.235 389.832C304.141 384.627 306.009 377.88 311.126 373.779C329.317 359.331 348.004 345.63 368.427 333.998C380.673 327.094 391.954 317.87 403.799 309.85C416.83 301.04 430.017 292.456 443.185 283.833L467.54 267.994C479.774 259.911 492.321 252.161 504.229 243.771C513.547 237.306 522.019 229.975 531.074 223.203C533.068 221.711 534.867 220.043 536.98 218.663C544.888 213.684 548.224 213.452 552.745 217.24C553.779 218.099 554.921 218.883 555.786 219.842C558.689 223.084 557.322 228.113 552.444 232.791C537.858 246.555 520.928 258.657 503.383 270.239C490.283 278.748 477.115 287.307 463.978 295.835L463.658 295.415Z" fill="#231F20"/>
<path fill-rule="evenodd" clip-rule="evenodd" d="M572.931 274.907C547.008 282.369 498.449 258.66 498.449 258.66C498.449 258.66 489.507 199.077 513.429 179.042C516.803 176.22 541.283 156.844 557.305 151.22C563.481 149.056 547.736 213.148 555.449 219.011C555.449 219.011 612.323 226.548 622.111 236.957L572.931 274.907Z" fill="#231F20"/>
<path fill-rule="evenodd" clip-rule="evenodd" d="M545.426 188.983C546.881 179.289 549.283 164.208 549.163 166.227C549.22 165.763 549.464 165.111 549.195 164.678C548.793 164.697 548.361 164.835 547.903 164.986C547.439 165.142 546.944 165.343 546.423 165.581C546.197 165.7 546.386 165.569 545.834 165.876L544.203 166.817L540.949 168.773C534.634 172.673 528.677 177.295 522.633 181.697L518.745 184.6C517.647 185.515 516.882 186.393 515.892 187.265C514.857 188.011 514.236 189.359 513.365 190.388C512.487 191.41 511.784 192.651 511.145 193.968C508.329 198.991 506.442 204.998 505.207 211.219C502.598 223.666 502.291 237.041 503.031 250.172L503.225 253.1L503.419 255.038L504.943 255.771L506.981 256.662C509.082 257.583 511.208 258.43 513.333 259.264C517.604 260.913 521.911 262.412 526.226 263.747C540.472 267.968 555.44 270.77 568.646 270.269C572.559 269.999 573.769 273.699 570.245 278.283C566.809 282.923 557.616 287.08 547.953 285.544C538.196 284.108 529.035 281.543 520.149 278.464C515.697 276.953 511.364 275.21 507.044 273.41L500.635 270.564L495.337 268.062L489.511 265.19C489.091 261.96 488.721 258.75 488.414 255.527L488.22 253.338L488.151 252.015L488.013 249.375C487.881 245.857 487.862 242.327 487.906 238.809C488.044 231.755 488.646 224.663 489.768 217.583C491.443 207.707 493.487 197.461 498.441 187.484C500.761 182.474 504.467 177.771 508.869 173.695C512.926 170.366 516.776 167.494 520.852 164.616C525.304 161.493 529.837 158.477 534.528 155.617L538.083 153.504C539.375 152.777 541.695 151.378 543.451 150.544C547.176 148.676 551.114 146.606 554.412 145.929C556.042 145.641 557.723 145.283 558.889 145.591C559.541 145.691 560.168 145.653 560.839 145.86C561.579 146.149 562.181 146.87 562.514 147.422C563.981 149.717 564.627 152.808 564.62 156.727C564.602 160.627 563.975 164.904 563.448 168.999L562.213 177.207C561.216 183.678 560.187 190.099 559.41 196.47C559.015 199.649 558.682 202.822 558.488 205.92C558.4 207.343 558.356 209.281 558.356 210.184C558.369 211.018 558.375 211.871 558.538 212.711C558.682 213.627 559.077 214.881 560.237 214.724L571.236 216.68L584.567 219.333C589.001 220.273 593.421 221.308 597.836 222.393C602.426 223.685 605.975 224.33 612.565 226.839L616.353 228.256L619.645 230.012C621.959 231.14 623.758 232.526 625.828 233.899C626.806 234.689 627.953 235.48 628.813 236.276L626.511 238.74L621.877 243.769L615.356 249.162L609.957 253.702L601.329 261.051C598.783 263.202 596.381 265.415 593.766 267.522C584.078 275.329 580.322 276.941 575.751 275.392C574.71 275.041 573.518 274.809 572.678 274.295C569.838 272.564 572.283 267.435 578.936 261.145C583.865 256.486 588.963 251.877 594.186 247.325L602.106 240.521L603.028 239.737L603.078 239.631L603.153 239.436C603.191 239.33 603.21 239.242 603.21 239.167C603.348 238.878 602.608 238.891 602.564 238.935L602.52 238.953C602.52 238.953 602.52 238.96 602.489 238.96C602.489 238.96 602.52 238.979 601.974 238.816C600.407 238.345 598.801 237.894 597.146 237.486C593.892 236.621 590.524 235.856 587.157 235.103C582.021 233.962 576.785 232.959 571.549 231.968L563.649 230.576L558.826 229.786L550.769 228.607C550.016 227.717 549.207 227.102 548.536 226.224C547.734 225.365 546.969 224.506 546.235 223.622C545.119 221.596 544.172 219.408 543.871 216.894C543.357 214.605 543.338 211.582 543.275 209.626C543.269 208.09 543.338 206.666 543.401 205.218C543.733 199.562 544.366 194.225 545.05 188.964L545.426 188.983Z" fill="#231F20"/>
<path fill-rule="evenodd" clip-rule="evenodd" d="M54.1861 536.229C74.2081 574.574 104.953 607.231 142.075 630.144C155.519 638.716 170.198 645.068 184.846 651.263C210.995 661.56 238.673 668.15 266.803 670.884C294.958 673.348 323.508 671.894 351.337 666.47C376.037 661.654 400.085 652.919 422.088 641.256C436.316 633.875 449.522 624.72 462.251 615.082C474.586 604.943 486.788 594.584 497.774 582.933C504.81 575.91 507.017 579.258 504.007 588.219C502.421 592.621 499.887 598.81 495.222 604.949C492.965 608.084 490.362 611.389 487.44 614.756C484.349 617.929 480.881 621.114 477.144 624.269C423.28 668.251 352.792 689.596 283.928 686.166C242.799 684.046 200.097 675.487 161.802 657.509C119.839 637.801 82.8239 607.169 56.6442 568.931C52.3049 563.262 49.0568 556.872 45.2192 550.884C41.6512 544.732 38.6413 538.261 35.3367 531.972C32.5839 525.425 29.6869 518.923 27.1411 512.307C24.9025 505.579 22.4632 498.919 20.4002 492.153C8.44842 450.905 5.75206 406.917 12.4804 364.942C14.6814 348.544 18.7949 332.667 23.2094 316.928C28.3137 301.421 33.8004 285.983 41.2185 271.328C44.2347 264.744 47.5393 258.492 51.2327 252.197C65.1346 228.958 71.9444 223.126 78.4408 220.982C79.9457 220.505 81.6952 219.709 82.8616 219.69C84.8368 219.652 84.6926 222.192 82.7424 226.663C80.8299 231.178 76.8167 237.411 72.0949 245.656C57.6224 269.761 45.238 295.909 36.8856 323.706C28.5143 351.473 23.7926 380.687 23.7048 410.027C23.9054 453.433 33.8819 497.565 54.4934 536.004L54.1861 536.229Z" fill="#231F20"/>
<path fill-rule="evenodd" clip-rule="evenodd" d="M297.784 405.841C292.767 405.07 288.503 399.947 288.673 395.25C288.767 390.603 291.651 387.725 294.824 386.766C296.831 386.051 301.233 388.678 301.747 389.569C302.092 390.566 302.913 391.187 303.515 391.061C303.264 391.074 302.951 391.136 302.694 391.224C302.644 391.224 302.562 391.231 302.468 391.274C302.085 391.469 302.518 391.237 302.437 391.243C302.393 391.274 302.769 390.986 302.857 390.754C303.164 390.371 303.384 389.77 303.452 389.337C303.521 388.904 303.415 388.923 303.515 389.142C303.565 389.337 303.553 388.973 302.518 388.352C302.142 388.089 301.766 387.901 301.402 387.775C301.27 387.75 301.007 387.644 300.687 387.487L300.574 387.399C300.499 387.355 300.367 387.161 300.261 387.073C302.493 387.224 304.606 386.615 305.008 386.258C305.566 385.875 305.177 386.02 304.97 386.722C304.719 387.431 304.694 388.377 304.794 389.312C304.901 390.158 305.152 391.193 305.578 392.152C305.779 392.679 306.061 393.287 306.324 393.682C306.281 393.795 306.193 393.939 306.117 394.034C305.816 394.002 306.588 394.698 305.296 393.137C304.863 392.61 304.368 392.096 303.873 391.619C303.553 391.218 303.195 390.829 302.807 390.472C302.412 390.108 301.973 389.763 301.521 389.456C301.264 389.211 300.963 388.979 300.637 388.772C299.803 388.327 299.527 388.139 299.063 387.989C297.226 387.669 299.646 388.227 301.822 386.245C304.211 384.477 305.697 381.831 305.936 381.141C306.243 380.301 305.773 381.411 305.86 382.891C305.86 384.371 306.45 385.694 306.45 385.6C306.45 385.6 305.578 384.389 302.882 383.054C302.744 383.01 301.872 382.546 302.023 382.621L302.029 382.583C302.054 382.608 302.054 382.452 302.079 382.326C302.154 382.163 302.173 381.699 302.236 381.273C302.355 380.351 302.33 378.965 302.249 377.536C301.941 376.777 302.048 375.717 301.709 375.441C301.283 374.519 301.264 374.532 300.518 374.005C299.79 373.623 298.405 372.902 296.461 372.174C293.037 371.196 288.127 371.679 284.772 373.685C283.054 374.62 281.687 375.817 280.841 376.984C279.781 378.382 278.721 380.382 278.069 382.395C277.643 383.762 277.034 385.198 277.693 386.816C278.151 388.033 277.605 394.824 279.731 400.668C280.834 403.533 281.85 405.935 283.286 407.678C284.666 409.729 285.719 410.607 285.995 411.165C287.481 413.541 289.475 415.347 292.918 416.407C296.298 417.511 300.988 417.486 305.986 416.608C307.409 416.463 308.732 415.466 310.45 416.056C314.489 417.429 317.517 415.435 320.646 413.88C325.142 411.742 329.626 409.616 334.291 407.402C336.611 406.324 339.521 405.973 342.23 405.239C344.707 404.599 346.193 408.199 345.81 409.07C344.7 411.547 347.372 411.66 348.576 412.682C348.983 413.04 349.504 413.504 349.686 413.905C349.874 414.331 345.083 421.329 338.8 428.095C332.73 435.062 324.246 440.749 322.34 441.527C322.032 441.54 319.073 443.302 313.805 445.082C308.707 446.982 301.239 449.064 292.517 449.089C283.926 449.208 274.006 446.782 267.447 442.499C260.775 438.517 256.768 434.353 255.589 433.049C252.792 430.353 250.867 426.703 249.35 423.035C249.187 422.602 247.205 419.517 245.286 414.752C243.374 409.986 241.718 403.559 241.198 397.018C239.787 383.881 244.371 370.688 244.954 369.798C247.23 364.806 249.87 359.878 253.601 355.438C257.809 350.66 262.869 346.941 268.343 345.342C270.45 344.546 272.438 343.706 274.413 342.746C283.01 339.065 292.31 337.88 301.966 339.517C304.387 339.931 306.788 340.42 309.247 341.367C311.667 342.094 314.081 343.311 316.439 344.665C318.803 345.85 320.998 347.882 323.13 349.606C325.073 351.669 327.093 353.808 328.56 356.203C329.99 358.705 331.57 361.232 332.322 363.841C333.294 366.462 334.066 369.083 334.335 371.579L334.874 375.391C334.975 376.582 334.975 377.636 335.012 378.771C335.088 380.978 334.937 383.392 334.605 385.869C334.341 387.681 333.67 389.443 332.931 391.35C332.071 393.695 330.799 396.09 329.325 398.599C327.469 401.84 324.691 405.126 321.092 407.465C317.543 409.835 313.454 411.24 309.56 411.717C301.697 412.551 294.899 410.607 288.641 406.33C285.575 404.06 282.402 401.05 280.189 396.046C277.831 391.18 277.981 383.574 280.697 378.758C283.261 373.867 286.422 371.409 289.162 369.378C291.651 367.609 295.106 365.697 299.094 364.693C300.869 364.223 304.87 363.584 310.118 365.007C315.304 366.242 321.681 371.127 323.932 377.272C326.397 383.411 325.594 388.798 324.566 392.497C323.449 396.429 321.549 399.721 320.233 401.477C318.966 403.571 314.1 406.894 309.052 407.352C304.011 407.986 299.721 406.324 297.784 405.841" fill="#231F20"/>
<path fill-rule="evenodd" clip-rule="evenodd" d="M576.01 88.4619C576.694 89.4652 575.371 90.2992 572.881 91.0454C572.091 91.2774 569.677 91.2398 569.332 90.9513C568.661 90.3995 568.009 89.8352 567.532 89.2645C567.257 88.9134 565.946 83.3953 565.369 81.5204C564.817 79.7082 564.661 77.8897 564.592 76.0712L563.983 64.9911C563.946 64.1696 564.04 63.3482 564.265 62.533C565.056 59.7238 564.962 56.9083 564.717 54.0928C564.679 53.6225 564.755 53.1459 564.309 52.6944C563.576 51.9482 563.544 44.3107 563.889 43.3262C564.748 40.8744 565.275 38.4163 565.952 35.952C566.053 35.6071 565.877 35.2308 566.41 34.911C567.639 34.1711 567.432 33.4124 567.526 32.6536C567.652 31.6002 567.846 30.5467 568.26 29.4932C568.461 28.9728 569.163 28.4586 569.727 27.9507C570.241 27.4804 572.091 27.7312 572.292 27.8942C572.875 28.3708 573.747 27.9883 574.518 27.9444C574.781 27.9256 575.114 27.9068 575.327 27.9319C575.797 27.982 578.995 34.0332 578.97 34.6978C578.976 34.7668 579.227 37.0054 579.497 39.382C579.779 41.7397 580.08 44.1978 580.205 44.6994C580.331 45.2262 580.042 45.7529 579.867 46.2796C579.791 46.5304 580.845 53.5974 580.814 53.8796C580.701 55.3469 581.108 56.8142 579.986 58.2753C579.766 58.5574 579.817 58.8584 579.835 59.1469C579.948 61.6677 579.465 64.1822 579.146 66.7029C578.976 67.9884 579.095 69.2739 579.052 70.5656C579.039 70.7914 578.882 71.0234 578.807 71.2554C578.713 71.5501 578.562 71.8448 578.569 72.1333C578.619 75.1808 577.992 78.222 578.381 81.2695C578.462 81.9718 577.214 85.3203 577.365 86.1292C577.44 86.5807 575.734 88.0606 576.01 88.4619" fill="#231F20"/>
<path fill-rule="evenodd" clip-rule="evenodd" d="M644.303 164.023C644.008 165.359 642.359 164.882 639.738 163.49C638.904 163.039 637.01 161.089 637.004 160.562C636.991 159.546 637.016 158.524 637.204 157.633C637.273 156.969 641.794 151.476 643.337 149.576C644.817 147.757 646.579 146.277 648.41 144.948C652.135 142.227 655.834 139.537 659.659 137.022C660.506 136.458 661.44 136.038 662.437 135.73C665.855 134.677 668.852 132.971 671.743 131.021C672.232 130.701 672.784 130.482 673.053 129.798C673.436 128.613 681.87 124.123 683.193 123.967C686.322 123.365 689.463 122.838 692.705 122.518C693.163 122.474 693.552 122.154 694.129 122.531C695.446 123.39 696.298 122.919 697.252 122.731C698.575 122.462 699.942 122.349 701.39 122.468C702.105 122.518 702.908 123.007 703.648 123.352C704.325 123.666 704.387 125.321 704.25 125.553C703.829 126.212 704.456 126.845 704.663 127.491C704.732 127.71 704.826 127.999 704.845 128.187C704.745 128.45 699.553 134.069 698.938 134.413C698.851 134.489 696.662 135.699 694.417 137.254C692.154 138.709 689.695 140.101 689.25 140.49C688.767 140.86 688.078 140.822 687.457 140.922C687.143 140.941 680.39 145.588 680.108 145.751C678.534 146.39 677.311 147.669 675.261 147.488C674.866 147.45 674.59 147.676 674.307 147.858C671.868 149.482 669.115 150.56 666.482 151.865C665.121 152.517 663.942 153.445 662.688 154.247C662.462 154.385 662.143 154.392 661.873 154.479C661.541 154.586 661.164 154.636 660.888 154.831C658.01 156.862 654.756 158.38 652.241 160.844C651.696 161.408 647.827 162.688 647.281 163.44C646.968 163.829 644.422 163.471 644.303 164.023" fill="#231F20"/>
<path fill-rule="evenodd" clip-rule="evenodd" d="M655.136 248.735C653.8 248.603 654.088 246.816 655.393 244.182C655.807 243.348 657.681 241.329 658.158 241.21C659.105 240.997 660.033 240.777 660.817 240.721C661.274 240.758 666.473 242.784 668.385 243.085C670.185 243.492 671.746 244.195 673.289 244.947C676.462 246.402 679.585 247.919 682.883 249.192C683.617 249.481 684.25 249.951 684.877 250.503C686.99 252.459 689.58 253.488 692.314 254.083C692.772 254.177 693.192 254.416 693.794 254.046C694.734 253.5 702.046 255.569 702.905 256.228C705.018 257.833 707.238 259.213 709.426 260.812C709.74 261.031 710.166 260.95 710.311 261.664C710.655 263.32 711.477 263.301 712.204 263.633C713.22 264.072 714.211 264.637 715.089 265.615C715.528 266.066 715.822 267.026 716.174 267.785C716.493 268.481 715.753 270.218 715.528 270.387C714.888 270.857 715.039 271.848 714.876 272.625C714.819 272.895 714.744 273.24 714.669 273.447C714.581 273.654 712.718 274.444 710.762 275.272C708.862 275.855 706.881 276.375 706.548 276.288C706.467 276.275 704.071 276.03 701.519 275.773C699.049 275.397 696.459 275.015 695.8 274.914C695.217 274.889 694.772 274.369 694.295 273.992C694.082 273.886 686.357 272.494 686.062 272.299C684.595 271.597 682.858 271.478 681.817 269.678C681.616 269.321 681.284 269.264 680.97 269.17C678.287 268.28 675.898 266.656 673.49 265.126C672.261 264.336 670.9 263.803 669.614 263.126C669.376 263 669.238 262.712 669.05 262.505C668.812 262.248 668.605 261.928 668.316 261.777C665.275 260.128 662.779 257.62 659.744 255.952C659.005 255.595 656.916 252.064 656.126 251.632C655.656 251.393 655.662 248.772 655.136 248.735" fill="#231F20"/>
</g>
<defs>
<clipPath id="clip0_2323_28">
<rect width="720" height="720" fill="white"/>
</clipPath>
</defs>
</svg>
