<svg width="720" height="720" viewBox="0 0 720 720" fill="none" xmlns="http://www.w3.org/2000/svg">
<path d="M167.275 120.753C147.938 131.912 129.494 151.628 129.494 151.628C129.058 152.092 128.825 152.71 128.845 153.345C128.865 153.981 129.137 154.583 129.601 155.018C130.065 155.454 130.683 155.687 131.319 155.668C131.955 155.648 132.558 155.377 132.994 154.914C132.994 154.914 151.331 135.497 169.679 124.909C170.23 124.591 170.633 124.067 170.797 123.452C170.961 122.837 170.874 122.182 170.556 121.632C170.398 121.359 170.188 121.119 169.938 120.928C169.688 120.736 169.402 120.595 169.098 120.513C168.793 120.432 168.475 120.411 168.162 120.452C167.85 120.493 167.548 120.596 167.275 120.753Z" fill="black"/>
<path d="M166.798 214.136C166.798 214.136 162.305 218.372 160.175 221.908C159.847 222.453 159.749 223.106 159.903 223.723C160.057 224.34 160.45 224.871 160.995 225.199C161.265 225.362 161.565 225.47 161.877 225.517C162.189 225.564 162.507 225.549 162.813 225.473C163.119 225.397 163.407 225.262 163.661 225.075C163.915 224.887 164.129 224.652 164.292 224.382C165.648 222.132 170.157 217.564 170.157 217.564C170.612 217.119 170.872 216.512 170.879 215.875C170.886 215.239 170.64 214.626 170.194 214.171C169.748 213.717 169.14 213.458 168.503 213.451C167.866 213.445 167.253 213.691 166.798 214.136Z" fill="black"/>
<path d="M193.802 258.428C193.166 258.398 192.544 258.622 192.073 259.05C192.073 259.05 190.454 260.521 188.596 262.32C186.739 264.118 184.699 266.129 183.511 267.764C183.326 268.019 183.193 268.308 183.119 268.615C183.045 268.922 183.033 269.24 183.082 269.551C183.132 269.862 183.243 270.161 183.408 270.43C183.573 270.698 183.789 270.932 184.045 271.117C184.56 271.49 185.203 271.644 185.832 271.544C186.461 271.444 187.024 271.099 187.398 270.584C188.063 269.669 190.143 267.505 191.939 265.766C193.735 264.027 195.305 262.598 195.305 262.598C195.776 262.17 196.057 261.573 196.087 260.937C196.118 260.302 195.894 259.681 195.466 259.21C195.254 258.977 194.998 258.788 194.712 258.654C194.426 258.52 194.117 258.443 193.802 258.428Z" fill="black"/>
<path d="M170.884 340.45L166.849 344.167C166.381 344.598 166.104 345.198 166.078 345.834C166.052 346.469 166.28 347.089 166.712 347.557C167.144 348.025 167.744 348.302 168.38 348.328C169.017 348.354 169.637 348.126 170.106 347.695L174.14 343.98C174.608 343.549 174.886 342.95 174.912 342.314C174.938 341.678 174.711 341.058 174.279 340.59C174.066 340.358 173.808 340.17 173.522 340.037C173.235 339.904 172.926 339.829 172.61 339.816C172.295 339.804 171.98 339.853 171.683 339.962C171.387 340.071 171.116 340.236 170.884 340.45Z" fill="black"/>
<path d="M182.042 392.197C182.042 392.197 179.165 394.544 176.062 397.323C174.51 398.713 172.899 400.212 171.532 401.616C170.165 403.02 169.064 404.186 168.353 405.585C168.21 405.866 168.123 406.172 168.099 406.486C168.075 406.801 168.112 407.117 168.21 407.416C168.308 407.716 168.464 407.994 168.669 408.233C168.874 408.472 169.125 408.669 169.406 408.812C169.687 408.955 169.994 409.041 170.308 409.065C170.623 409.09 170.939 409.052 171.239 408.954C171.539 408.856 171.817 408.701 172.057 408.496C172.296 408.29 172.493 408.04 172.636 407.759C172.775 407.486 173.734 406.239 174.976 404.964C176.218 403.688 177.765 402.241 179.268 400.896C182.272 398.204 185.079 395.917 185.079 395.917C185.323 395.718 185.526 395.472 185.675 395.195C185.825 394.917 185.918 394.613 185.949 394.299C185.981 393.985 185.95 393.669 185.86 393.367C185.769 393.065 185.619 392.784 185.419 392.54C185.017 392.048 184.435 391.735 183.802 391.67C183.168 391.606 182.535 391.796 182.042 392.197Z" fill="black"/>
<path d="M29.0296 566.616C19.5686 570.454 7.11128 578.415 7.11128 578.415C6.57458 578.756 6.19555 579.297 6.05735 579.918C5.91914 580.538 6.03304 581.188 6.37415 581.725C6.54323 581.991 6.76315 582.221 7.02131 582.402C7.27948 582.584 7.57082 582.712 7.87873 582.781C8.18665 582.849 8.50513 582.857 8.8159 582.803C9.12666 582.748 9.42363 582.633 9.6899 582.464C9.6899 582.464 22.1814 574.572 30.8362 571.061C31.4262 570.822 31.8968 570.358 32.1446 569.772C32.3924 569.186 32.3971 568.525 32.1577 567.936C31.918 567.346 31.4538 566.876 30.8672 566.629C30.2806 566.381 29.6196 566.376 29.0296 566.616Z" fill="black"/>
<path d="M80.5483 603.972C80.5483 603.972 68.9871 608.584 55.5528 615.41C42.1184 622.236 26.8151 631.124 18.8624 640.522C18.4518 641.008 18.2511 641.637 18.3043 642.271C18.3576 642.904 18.6606 643.491 19.1465 643.902C19.3873 644.105 19.6658 644.26 19.9662 644.356C20.2667 644.452 20.5831 644.488 20.8975 644.462C21.2119 644.436 21.5181 644.348 21.7985 644.204C22.0789 644.059 22.3282 643.861 22.5319 643.62C29.4426 635.454 44.5081 626.405 57.7293 619.687C70.9506 612.969 82.3308 608.429 82.3308 608.429C82.9222 608.193 83.3956 607.732 83.6469 607.147C83.8983 606.563 83.9069 605.902 83.671 605.311C83.5541 605.018 83.3807 604.752 83.1604 604.526C82.9402 604.3 82.6774 604.119 82.3874 603.995C82.0974 603.871 81.7858 603.805 81.4702 603.801C81.1546 603.797 80.8413 603.855 80.5483 603.972Z" fill="black"/>
<path d="M91.4872 648.806C90.9892 648.41 90.3539 648.227 89.7211 648.298C89.0882 648.37 88.5096 648.689 88.1125 649.187L81.2638 657.77C80.8668 658.267 80.684 658.902 80.7554 659.534C80.8267 660.167 81.1465 660.745 81.6445 661.141C82.1425 661.538 82.7779 661.721 83.4107 661.65C84.0436 661.578 84.6221 661.259 85.0192 660.761L91.8678 652.178C92.2648 651.681 92.4476 651.046 92.3763 650.414C92.3049 649.781 91.9851 649.203 91.4872 648.806Z" fill="black"/>
<path d="M289.307 588.804C288.999 588.735 288.68 588.728 288.369 588.782C288.058 588.836 287.761 588.951 287.495 589.12L282.391 592.355C282.124 592.524 281.894 592.743 281.712 593.001C281.531 593.259 281.401 593.55 281.333 593.858C281.264 594.165 281.256 594.483 281.31 594.794C281.364 595.105 281.479 595.402 281.648 595.668C281.818 595.934 282.037 596.164 282.295 596.345C282.554 596.526 282.845 596.655 283.153 596.724C283.461 596.792 283.779 596.8 284.09 596.745C284.401 596.691 284.698 596.576 284.964 596.407L290.068 593.172C290.334 593.003 290.565 592.784 290.747 592.526C290.928 592.268 291.057 591.977 291.126 591.669C291.195 591.361 291.203 591.043 291.148 590.733C291.094 590.422 290.979 590.125 290.81 589.859C290.469 589.322 289.928 588.943 289.307 588.804Z" fill="black"/>
<path d="M341.187 613.437L302.473 634.759C301.916 635.066 301.503 635.582 301.326 636.194C301.149 636.805 301.222 637.461 301.53 638.018C301.837 638.575 302.354 638.988 302.965 639.164C303.577 639.341 304.234 639.268 304.792 638.961L343.506 617.641C343.783 617.489 344.026 617.284 344.223 617.038C344.42 616.791 344.567 616.509 344.655 616.206C344.742 615.903 344.769 615.585 344.734 615.272C344.699 614.959 344.602 614.655 344.45 614.379C344.142 613.822 343.626 613.41 343.014 613.233C342.402 613.056 341.745 613.13 341.187 613.437Z" fill="black"/>
<path d="M339.178 700.414C338.541 700.391 337.922 700.623 337.457 701.056L329.099 708.847C328.633 709.281 328.36 709.882 328.337 710.517C328.315 711.153 328.547 711.772 328.981 712.237C329.415 712.702 330.017 712.976 330.653 712.998C331.29 713.02 331.909 712.789 332.375 712.355L340.732 704.567C341.198 704.133 341.473 703.533 341.495 702.897C341.518 702.261 341.287 701.642 340.853 701.177C340.638 700.946 340.379 700.759 340.092 700.628C339.804 700.497 339.493 700.424 339.178 700.414Z" fill="black"/>
<path d="M314.412 159.035C314.102 158.973 313.784 158.973 313.474 159.034C313.165 159.095 312.87 159.216 312.608 159.391C312.078 159.744 311.71 160.293 311.585 160.916C311.46 161.54 311.588 162.188 311.94 162.717C316.539 169.616 325.264 172.5 337.695 170.559C338.006 170.51 338.305 170.4 338.575 170.236C338.844 170.072 339.078 169.857 339.264 169.602C339.45 169.347 339.584 169.058 339.658 168.752C339.732 168.446 339.746 168.128 339.697 167.816C339.598 167.188 339.253 166.624 338.739 166.25C338.224 165.875 337.581 165.72 336.952 165.819C325.503 167.607 319.381 165.225 315.937 160.058C315.584 159.529 315.036 159.161 314.412 159.035Z" fill="black"/>
<path d="M335.093 116.432C334.787 116.509 334.499 116.645 334.246 116.833C333.993 117.021 333.779 117.257 333.617 117.528C333.456 117.799 333.349 118.098 333.303 118.41C333.257 118.722 333.273 119.04 333.35 119.345C335.187 126.635 338.203 132.297 342.51 136.174C346.816 140.051 352.359 142.012 358.686 142.138C359.002 142.144 359.315 142.089 359.609 141.974C359.903 141.859 360.171 141.688 360.399 141.469C360.626 141.251 360.809 140.99 360.935 140.701C361.062 140.412 361.13 140.102 361.136 139.787C361.143 139.472 361.087 139.158 360.972 138.865C360.857 138.571 360.686 138.303 360.467 138.076C360.249 137.848 359.987 137.666 359.698 137.54C359.409 137.413 359.098 137.345 358.783 137.339C353.362 137.231 349.133 135.674 345.726 132.607C342.319 129.54 339.683 124.827 338.006 118.172C337.851 117.556 337.456 117.026 336.91 116.699C336.364 116.373 335.71 116.277 335.093 116.432Z" fill="black"/>
<path d="M321.983 99.0406C319.965 99.2597 318.701 100.79 317.911 102.357C317.121 103.924 316.616 105.823 316.256 108.062C315.537 112.54 315.474 118.368 316.166 124.727C316.857 131.086 318.172 136.762 319.838 140.982C320.67 143.091 321.573 144.84 322.681 146.2C323.789 147.561 325.353 148.785 327.371 148.565C329.389 148.346 330.653 146.816 331.443 145.249C332.232 143.682 332.738 141.781 333.098 139.542C333.817 135.064 333.88 129.238 333.188 122.879C332.496 116.52 331.182 110.841 329.516 106.622C328.683 104.512 327.781 102.766 326.673 101.406C325.565 100.045 324.001 98.8216 321.983 99.0406ZM322.499 103.78C322.176 103.815 322.365 103.668 322.972 104.415C323.58 105.161 324.358 106.551 325.077 108.373C326.516 112.017 327.791 117.386 328.445 123.394C329.098 129.402 329.007 134.919 328.386 138.787C328.075 140.721 327.614 142.245 327.181 143.104C326.748 143.963 326.533 143.859 326.855 143.824C327.178 143.789 326.992 143.937 326.385 143.191C325.777 142.445 324.999 141.055 324.28 139.233C322.841 135.589 321.563 130.22 320.909 124.212C320.255 118.204 320.349 112.686 320.971 108.819C321.281 106.885 321.743 105.36 322.175 104.502C322.608 103.643 322.821 103.745 322.499 103.78Z" fill="black"/>
<path d="M339.434 96.4549C337.861 96.6257 336.801 97.7289 336.17 98.7875C335.538 99.8458 335.149 101.05 334.845 102.44C334.238 105.222 334.035 108.764 334.232 112.745C334.247 113.059 334.324 113.366 334.458 113.649C334.592 113.933 334.78 114.187 335.013 114.398C335.245 114.608 335.517 114.771 335.813 114.877C336.108 114.982 336.422 115.029 336.735 115.014C337.049 114.998 337.356 114.921 337.639 114.787C337.923 114.652 338.178 114.463 338.388 114.231C338.599 113.998 338.761 113.727 338.867 113.432C338.972 113.136 339.019 112.823 339.003 112.51C338.822 108.843 339.045 105.607 339.515 103.461C339.675 102.726 339.858 102.36 340.035 101.937C340.409 102.482 340.841 103.182 341.281 104.299C342.338 106.978 343.297 110.99 343.785 115.477C344.273 119.964 344.201 124.087 343.745 126.931C343.548 128.161 343.263 128.995 343.008 129.603C342.967 129.545 342.946 129.528 342.904 129.462C342.558 128.931 342.016 128.56 341.396 128.428C340.776 128.297 340.13 128.418 339.599 128.763C339.068 129.108 338.696 129.65 338.565 130.269C338.433 130.888 338.554 131.534 338.899 132.065C339.19 132.512 339.495 132.939 339.869 133.347C339.874 133.352 339.878 133.357 339.883 133.361C340.736 134.282 342.038 135.166 343.63 134.995C345.442 134.798 346.524 133.439 347.163 132.169C347.802 130.9 348.189 129.419 348.466 127.692C349.02 124.238 349.065 119.804 348.539 114.966C348.012 110.128 347.016 105.808 345.732 102.553C345.09 100.926 344.394 99.5639 343.496 98.4611C342.599 97.3581 341.25 96.2638 339.438 96.4606L339.434 96.4549Z" fill="black"/>
<path d="M355.834 11.0134C349.816 10.9517 344.414 13.7832 339.748 18.2923C335.082 22.8021 331.004 29.0151 327.222 36.2564C325.182 40.1509 322.326 44.9941 317.86 47.9942C313.392 50.9948 307.313 52.4616 297.627 49.1645C287.332 45.6597 278.934 43.4255 271.562 42.8765C264.191 42.3276 257.791 43.5416 252.016 46.8935C246.494 50.0867 235.213 58.6762 234.829 76.8071C228.718 76.1732 208.819 75.3002 197.962 90.5908C196.74 92.3174 191.103 99.6626 188.151 111.303C185.199 122.943 184.818 139.111 193.308 158.953C194.839 162.517 199.838 172.742 209.04 181.676C218.243 190.61 231.877 198.208 249.888 195.746C255.738 194.947 260.135 191.925 263.057 188.256C265.98 184.586 267.525 180.315 268.078 176.612C268.359 174.726 268.513 173.209 267.41 171.7C266.859 170.946 265.924 170.439 265.145 170.294C264.366 170.149 263.723 170.234 263.129 170.348C260.756 170.806 258.538 171.943 256.326 172.185C252.295 172.636 248.198 170.83 244.795 167.822C241.392 164.814 238.823 160.633 237.938 157.166C236.705 152.342 236.174 147.12 236.842 143.535C237.176 141.743 237.792 140.417 238.539 139.625C239.286 138.833 240.135 138.399 241.747 138.399C246.37 138.399 250.67 140.67 254.128 143.455C257.587 146.24 260.132 149.483 261.175 150.943C262.972 153.44 266.2 154.535 269.126 153.361C270.588 152.774 271.883 151.52 272.57 149.855C273.257 148.191 273.405 146.184 273.034 143.822C272.277 139.012 269.387 132.5 268.745 126.423C268.424 123.384 268.656 120.594 269.748 118.303C270.839 116.012 272.751 114.052 276.508 112.572C285.737 108.946 298.445 103.245 310.866 99.4979C323.287 95.7513 335.314 94.2001 342.742 97.8242C345.418 99.1298 348.392 99.852 351.674 99.3747C354.956 98.8973 358.44 97.3247 362.586 94.4793C366.863 91.5392 374.301 84.9912 380.58 76.6357C386.86 68.28 392.056 58.0834 390.683 47.8523C388.081 28.4847 373.666 11.1674 355.842 11L355.834 11.0134ZM355.786 15.8124C370.432 15.9482 383.574 31.1001 385.912 48.5057C387.009 56.6753 382.629 65.9196 376.731 73.7675C370.833 81.6154 363.497 88.034 359.855 90.5373C356.069 93.1353 353.228 94.3118 350.972 94.64C348.716 94.9681 346.942 94.5509 344.842 93.5259C335.238 88.8409 322.311 91.0423 309.47 94.9158C296.628 98.7893 283.766 104.576 274.741 108.121C270.093 109.952 267.02 112.859 265.403 116.254C263.785 119.65 263.583 123.37 263.961 126.942C264.715 134.086 267.748 141.19 268.281 144.58C268.555 146.324 268.369 147.436 268.121 148.04C267.871 148.643 267.627 148.801 267.33 148.921C266.735 149.159 265.552 148.825 265.07 148.155C263.849 146.446 261.098 142.919 257.131 139.725C253.161 136.528 247.901 133.608 241.737 133.608C239.04 133.608 236.647 134.631 235.033 136.342C233.418 138.054 232.553 140.279 232.109 142.665C231.219 147.438 231.928 153.093 233.274 158.361C234.462 163.012 237.484 167.782 241.605 171.424C245.724 175.065 251.083 177.605 256.847 176.962C259.78 176.642 262.145 175.649 263.419 175.267C263.438 175.506 263.419 175.241 263.323 175.91C262.888 178.83 261.586 182.401 259.297 185.275C257.008 188.149 253.828 190.371 249.235 190.998C232.84 193.239 220.885 186.493 212.383 178.24C203.882 169.987 199.058 160.178 197.721 157.065C189.621 138.133 190.086 123.206 192.805 112.484C195.524 101.763 200.382 95.4796 201.878 93.3653C212.589 78.2869 236.749 81.8042 236.749 81.8042C237.1 81.8596 237.459 81.8363 237.8 81.7363C238.141 81.6362 238.455 81.462 238.721 81.2258C238.986 80.9896 239.196 80.6974 239.335 80.3705C239.473 80.0436 239.538 79.6899 239.523 79.3351C238.781 61.1836 249.219 54.0529 254.424 51.0445C259.326 48.1988 264.53 47.1683 271.198 47.6648C277.867 48.1614 285.944 50.262 296.07 53.7091C306.806 57.3636 314.895 55.7657 320.532 51.9791C326.169 48.1925 329.353 42.5261 331.471 38.4819C335.115 31.5044 339.004 25.6868 343.081 21.7469C347.157 17.8069 351.271 15.7709 355.778 15.8178L355.786 15.8124Z" fill="black"/>
<path fill-rule="evenodd" clip-rule="evenodd" d="M266.948 130.386L246.553 136.679C245.016 136.254 243.397 136.007 241.736 136.007C233.118 136.007 233.022 147.676 235.602 157.767C237.674 165.885 246.787 175.675 256.586 174.578C262.103 173.974 266.687 169.642 265.698 176.264C264.71 182.887 260.003 191.95 249.559 193.376C215.153 198.079 198.382 164.692 195.514 158.014C178.921 119.238 197.202 95.8191 199.919 91.9798C211.681 75.4164 237.125 79.4336 237.125 79.4336C236.343 60.3061 247.72 52.1478 253.223 48.9668C263.901 42.7692 276.431 44.4832 296.852 51.4349C317.273 58.3866 325.192 45.3059 329.351 37.3669C336.776 23.1481 345.285 13.3033 355.811 13.413C372.046 13.5638 385.825 29.798 388.296 48.1851C390.766 66.5859 369.137 87.071 361.218 92.5144C353.286 97.9579 348.565 98.0128 343.789 95.6819C326.757 87.3727 293.874 103.182 275.621 110.353C265.657 114.288 265.301 122.57 266.948 130.386Z" fill="black"/>
<path d="M317.387 112.299L245.845 134.387C245.544 134.48 245.263 134.631 245.02 134.833C244.778 135.034 244.576 135.281 244.429 135.559C244.282 135.838 244.191 136.144 244.162 136.458C244.132 136.771 244.165 137.088 244.259 137.389C244.352 137.69 244.503 137.97 244.705 138.212C244.906 138.455 245.154 138.655 245.433 138.802C245.712 138.949 246.017 139.04 246.331 139.069C246.645 139.098 246.962 139.065 247.263 138.972L318.805 116.884C319.107 116.791 319.387 116.639 319.63 116.438C319.873 116.237 320.074 115.99 320.222 115.711C320.369 115.432 320.46 115.127 320.489 114.813C320.518 114.499 320.486 114.183 320.392 113.881C320.299 113.58 320.147 113.301 319.946 113.058C319.744 112.816 319.497 112.615 319.218 112.468C318.939 112.321 318.634 112.231 318.32 112.202C318.006 112.173 317.689 112.206 317.387 112.299Z" fill="black"/>
<path d="M262.175 182.821C261.859 182.837 261.551 182.915 261.265 183.05C260.98 183.185 260.724 183.375 260.513 183.609C260.086 184.081 259.864 184.703 259.897 185.338C259.929 185.973 260.212 186.57 260.684 186.996C260.684 186.996 262.857 188.924 264.617 193.148C266.376 197.371 267.61 203.708 265.131 212.454C264.958 213.066 265.035 213.722 265.346 214.277C265.656 214.833 266.175 215.242 266.788 215.416C267.401 215.589 268.057 215.512 268.613 215.201C269.169 214.891 269.579 214.373 269.752 213.761C272.516 204.01 271.174 196.4 269.05 191.303C266.926 186.206 263.906 183.437 263.906 183.437C263.434 183.011 262.811 182.789 262.175 182.821Z" fill="black"/>
<path d="M347.557 148.682C346.958 148.898 346.469 149.343 346.199 149.919C345.928 150.495 345.898 151.155 346.114 151.753C350.67 164.357 345.777 180.98 334.436 191.699C323.094 202.418 305.712 207.432 284.576 197.009C284.005 196.728 283.345 196.684 282.742 196.889C282.139 197.093 281.641 197.529 281.359 198.099C281.22 198.382 281.137 198.689 281.116 199.004C281.096 199.318 281.137 199.633 281.239 199.932C281.34 200.23 281.499 200.506 281.707 200.743C281.915 200.98 282.168 201.174 282.45 201.313C305.108 212.486 325.114 207.114 337.735 195.186C350.356 183.257 355.998 164.969 350.631 150.123C350.415 149.524 349.969 149.036 349.392 148.766C348.816 148.496 348.156 148.466 347.557 148.682Z" fill="black"/>
<path d="M276.261 247.044C256.575 246.866 247.135 264.692 247.135 264.692C246.837 265.255 246.775 265.913 246.963 266.521C247.15 267.129 247.572 267.638 248.135 267.936C248.698 268.233 249.356 268.295 249.965 268.108C250.574 267.92 251.083 267.499 251.381 266.937C251.381 266.937 259.453 251.694 276.216 251.843C288.171 251.958 309.593 258.982 331.436 273.977C334.931 276.375 342.632 281.792 351.162 286.422C359.692 291.051 368.943 295.119 376.664 294.167C389.344 292.617 405.192 294.293 405.192 294.293C405.332 294.31 405.473 294.314 405.613 294.307C405.613 294.307 408.041 293.934 410.602 297.097C413.145 300.239 415.707 307.58 413.261 323.778C413.032 323.951 412.484 324.256 411.701 324.552C410.131 325.145 407.643 325.743 404.573 326.258C398.433 327.288 389.923 328.043 380.687 328.596C370.86 329.191 355.29 333.244 334.639 329.351C313.989 325.459 288.374 313.673 259.447 282.001C259.234 281.768 258.978 281.58 258.692 281.446C258.406 281.312 258.097 281.236 257.782 281.221C257.467 281.207 257.152 281.254 256.856 281.361C256.559 281.469 256.286 281.633 256.053 281.846C255.82 282.058 255.631 282.314 255.497 282.6C255.363 282.885 255.287 283.194 255.272 283.509C255.258 283.824 255.306 284.138 255.413 284.435C255.52 284.731 255.685 285.003 255.898 285.236C285.38 317.515 312.062 329.98 333.747 334.067C355.431 338.155 372.236 333.916 380.977 333.387C390.296 332.829 398.9 332.076 405.372 330.99C408.608 330.448 411.299 329.838 413.403 329.043C414.454 328.646 415.365 328.212 416.172 327.6C416.978 326.987 417.785 326.084 417.984 324.804C420.624 307.672 418.149 298.786 414.338 294.079C410.528 289.372 405.292 289.521 405.292 289.521L405.712 289.535C405.712 289.535 389.639 287.756 376.08 289.414C370.681 290.08 361.673 286.673 353.459 282.215C345.247 277.758 337.722 272.476 334.162 270.033C311.705 254.617 289.977 247.188 276.269 247.056L276.261 247.044Z" fill="black"/>
<path d="M286.503 224.54C285.873 224.45 285.233 224.613 284.723 224.994C284.214 225.375 283.876 225.943 283.785 226.573C283.74 226.884 283.757 227.202 283.835 227.508C283.913 227.813 284.05 228.1 284.239 228.353C284.428 228.605 284.665 228.818 284.936 228.979C285.207 229.14 285.508 229.246 285.82 229.291C285.82 229.291 290.743 230.041 294.891 233.509C299.038 236.976 302.597 242.813 299.547 254.802C299.469 255.107 299.452 255.425 299.498 255.737C299.543 256.048 299.649 256.348 299.811 256.619C299.972 256.89 300.185 257.126 300.438 257.315C300.69 257.503 300.978 257.64 301.284 257.718C301.901 257.875 302.555 257.78 303.102 257.455C303.649 257.13 304.045 256.602 304.203 255.985C307.589 242.676 303.292 234.274 297.973 229.826C292.654 225.379 286.503 224.54 286.503 224.54Z" fill="black"/>
<path d="M274.291 219.329C241.005 228.798 220.25 266.273 211.214 282.136C199.032 303.526 193.694 326.375 192.07 346.157C190.447 365.939 192.496 382.593 195.343 392.034C198.2 401.523 203.502 407.076 209.981 409.048C216.46 411.019 223.67 409.553 230.68 406.485C268.298 390.034 288.229 366.128 294.915 358.09C298.68 353.556 300.078 348.055 300.067 342.978C300.053 337.902 298.704 333.213 296.657 329.84C295.275 327.562 294.312 323.251 293.875 319.634C293.438 316.017 293.425 313.11 293.425 313.11C293.423 312.795 293.36 312.483 293.238 312.193C293.116 311.902 292.938 311.638 292.714 311.416C292.49 311.195 292.224 311.019 291.932 310.9C291.64 310.781 291.328 310.72 291.012 310.721C290.375 310.724 289.765 310.98 289.317 311.432C288.869 311.884 288.618 312.495 288.621 313.132C288.621 313.132 288.635 316.299 289.106 320.21C289.579 324.12 290.406 328.792 292.551 332.328C294.031 334.768 295.254 338.793 295.263 342.989C295.277 347.185 294.137 351.512 291.219 355.027C284.537 363.059 265.381 386.072 228.753 402.09C222.354 404.891 216.234 405.934 211.38 404.458C206.527 402.981 202.494 399.128 199.943 390.655C197.369 382.121 195.283 365.78 196.86 346.553C198.438 327.326 203.638 305.153 215.39 284.517C224.443 268.624 245.08 232.633 275.61 223.948C276.222 223.774 276.74 223.363 277.05 222.807C277.359 222.251 277.436 221.595 277.261 220.984C277.087 220.372 276.676 219.854 276.119 219.545C275.563 219.236 274.906 219.16 274.294 219.334L274.291 219.329Z" fill="black"/>
<path d="M291.157 358.82C291.157 358.82 330.998 340.556 355.18 337.265C379.348 333.988 485.915 334.002 503.702 334.386C521.502 334.756 525.413 340.995 525.66 349.523C525.907 358.065 522.188 374.629 510.056 386.38C507.393 388.958 497.567 391.947 479.492 393.304C461.418 394.662 410.735 397.02 398.52 398.72C386.292 400.42 379.499 414.022 374.215 421.44C367.422 431.024 341.868 462.259 288.563 466.894C264.327 468.991 227.642 467.058 210.542 406.7C216.237 408.497 222.962 407.249 229.714 404.287C263.791 389.383 283.06 368.377 291.157 358.82Z" fill="black"/>
<path d="M503.751 331.988C494.753 331.794 463.714 331.694 431.807 332.052C399.898 332.411 367.406 333.187 354.855 334.888C329.846 338.292 290.154 356.639 290.154 356.639C289.834 356.786 289.55 357 289.323 357.268C281.318 366.716 262.374 387.382 228.752 402.088C222.31 404.913 216.141 405.947 211.267 404.41C210.854 404.279 210.413 404.263 209.992 404.363C209.57 404.462 209.183 404.674 208.872 404.976C208.561 405.277 208.337 405.657 208.225 406.075C208.112 406.493 208.115 406.933 208.233 407.35C216.904 437.955 230.765 454.218 245.733 462.325C260.701 470.431 276.488 470.346 288.773 469.282C342.933 464.573 369.156 432.728 376.173 422.829C381.696 415.073 388.233 402.575 398.847 401.1C404.655 400.291 420.496 399.254 436.945 398.282C453.393 397.311 470.566 396.382 479.667 395.698C488.803 395.012 495.891 393.915 501.121 392.632C506.352 391.348 509.664 390.099 511.722 388.106C524.488 375.741 528.324 358.783 528.055 349.457C527.921 344.843 526.664 340.252 522.787 337.049C518.912 333.847 512.924 332.182 503.748 331.991L503.751 331.988ZM503.649 336.784C512.272 336.964 517.138 338.604 519.729 340.745C522.32 342.886 523.143 345.678 523.257 349.593C523.481 357.351 519.879 373.52 508.38 384.657C507.775 385.242 504.842 386.775 499.977 387.969C495.11 389.164 488.249 390.238 479.31 390.91C470.337 391.584 453.129 392.516 436.664 393.489C420.199 394.461 404.592 395.452 398.185 396.343C384.345 398.268 377.298 412.969 372.255 420.049C365.681 429.324 340.797 459.94 288.356 464.499C276.404 465.533 261.728 465.531 248.019 458.107C234.917 451.01 222.483 436.944 214.045 409.752C219.408 410.271 225.103 408.927 230.677 406.482C264.77 391.57 284.195 370.665 292.566 360.833C293.27 360.513 332.353 342.792 355.499 339.642C367.116 338.066 399.994 337.209 431.858 336.851C463.721 336.493 494.856 336.594 503.646 336.784L503.649 336.784Z" fill="black"/>
<path d="M558.722 327.744C555.639 327.9 552.188 329.314 547.826 332.208C544.14 334.663 538.012 336.728 532.901 338.052C527.789 339.375 523.709 340.02 523.709 340.02C523.398 340.069 523.099 340.179 522.83 340.344C522.561 340.509 522.327 340.724 522.142 340.979C521.956 341.234 521.823 341.523 521.75 341.83C521.676 342.136 521.663 342.454 521.712 342.765C521.812 343.393 522.157 343.957 522.673 344.331C523.188 344.705 523.831 344.859 524.46 344.76C524.46 344.76 528.758 344.082 534.104 342.698C539.45 341.314 545.857 339.287 550.487 336.204C554.453 333.574 557.245 332.625 558.966 332.537C560.687 332.45 561.461 332.934 562.394 334.01C562.824 334.504 563.369 336.641 562.727 339.313C562.084 341.985 560.473 345.053 557.832 347.476C551.583 353.223 532.637 372.647 529.411 375.967C527.916 377.509 525.615 379.219 523.776 379.663C522.857 379.885 522.115 379.851 521.369 379.523C520.623 379.196 519.765 378.51 518.863 376.979C518.703 376.708 518.491 376.471 518.239 376.281C517.987 376.091 517.7 375.953 517.395 375.874C517.089 375.795 516.771 375.777 516.459 375.821C516.147 375.865 515.846 375.97 515.574 376.13C515.303 376.29 515.065 376.502 514.875 376.754C514.685 377.006 514.547 377.292 514.468 377.598C514.389 377.903 514.371 378.22 514.415 378.533C514.459 378.845 514.564 379.145 514.724 379.417C516.004 381.588 517.61 383.115 519.437 383.918C521.264 384.721 523.205 384.736 524.905 384.325C528.304 383.505 530.99 381.233 532.858 379.306C536.056 376.015 555.255 356.367 561.083 351.008C564.48 347.891 566.534 344.038 567.401 340.43C568.268 336.825 568.169 333.329 566.023 330.861C564.39 328.977 561.803 327.582 558.722 327.738V327.744Z" fill="black"/>
<path d="M533.761 373.037C533.451 372.98 533.133 372.986 532.825 373.052C532.516 373.118 532.224 373.245 531.964 373.424C531.705 373.604 531.484 373.832 531.313 374.097C531.142 374.362 531.025 374.658 530.968 374.968L483.803 634.755L376.637 690.468L370.531 460.456C371.082 459.627 375.47 453.083 382.703 444.955C390.405 436.3 400.934 426.518 411.708 421.905C411.998 421.781 412.261 421.601 412.481 421.376C412.701 421.15 412.875 420.883 412.992 420.59C413.109 420.298 413.167 419.985 413.163 419.669C413.159 419.354 413.093 419.043 412.968 418.753C412.717 418.169 412.245 417.707 411.653 417.471C411.062 417.234 410.401 417.242 409.816 417.492C397.85 422.615 387.051 432.843 379.111 441.766C371.171 450.688 366.1 458.404 366.1 458.404C365.83 458.814 365.693 459.296 365.706 459.786L371.938 694.432C371.949 694.838 372.063 695.236 372.27 695.586C372.477 695.936 372.769 696.229 373.12 696.435C373.471 696.641 373.868 696.755 374.275 696.766C374.682 696.777 375.086 696.684 375.447 696.497L487.065 638.469C487.39 638.3 487.672 638.059 487.889 637.764C488.107 637.469 488.254 637.129 488.319 636.769L535.694 375.825C535.807 375.199 535.667 374.554 535.305 374.031C534.943 373.508 534.387 373.151 533.761 373.037Z" fill="black"/>
<path d="M507.696 294.881C504.395 294.501 501.314 295.217 498.674 295.906C493.913 297.162 481.988 298.951 481.988 298.951C481.676 298.997 481.376 299.104 481.105 299.266C480.834 299.427 480.598 299.641 480.41 299.894C480.222 300.147 480.085 300.434 480.008 300.74C479.931 301.046 479.915 301.363 479.961 301.675C480.007 301.987 480.115 302.287 480.277 302.557C480.439 302.827 480.653 303.063 480.906 303.251C481.16 303.439 481.448 303.575 481.754 303.651C482.06 303.728 482.378 303.743 482.69 303.697C482.69 303.697 494.357 302.006 499.893 300.547H499.907C502.41 299.894 504.914 299.39 507.158 299.648C509.404 299.906 511.449 300.774 513.602 303.397C515.967 306.286 517.573 309.309 517.735 310.724C517.816 311.431 517.749 311.516 517.545 311.704C517.347 311.893 516.623 312.301 514.979 312.395C514.343 312.432 513.748 312.719 513.324 313.194C512.901 313.669 512.683 314.293 512.72 314.928C512.756 315.564 513.044 316.159 513.52 316.582C513.995 317.005 514.62 317.223 515.255 317.186C517.557 317.054 519.474 316.5 520.86 315.178C522.247 313.856 522.701 311.88 522.506 310.178C522.116 306.773 519.949 303.57 517.319 300.358C514.477 296.893 511.011 295.263 507.71 294.883L507.696 294.881Z" fill="black"/>
<path d="M507.52 303.501C507.292 303.283 507.024 303.112 506.73 302.998C506.436 302.883 506.122 302.828 505.807 302.835C505.491 302.841 505.18 302.91 504.891 303.037C504.603 303.164 504.342 303.346 504.124 303.574C503.905 303.801 503.734 304.069 503.619 304.363C503.504 304.656 503.449 304.97 503.455 305.285C503.462 305.6 503.53 305.911 503.657 306.199C503.783 306.488 503.966 306.749 504.194 306.967C504.194 306.967 506.262 308.949 508.552 311.27C510.842 313.592 513.461 316.472 514.031 317.341C514.76 318.454 514.998 319.369 515.009 319.832C515.023 320.295 514.971 320.184 514.996 320.164C514.991 320.164 514.986 320.164 514.982 320.164C515.045 320.122 515.012 320.27 514.247 319.995C513.484 319.721 512.226 318.967 510.704 317.59C507.431 314.615 500.553 307.963 500.553 307.963C500.326 307.744 500.058 307.571 499.765 307.455C499.472 307.34 499.158 307.283 498.843 307.288C498.528 307.293 498.216 307.361 497.927 307.486C497.638 307.611 497.376 307.793 497.157 308.019C496.937 308.245 496.764 308.513 496.648 308.806C496.532 309.099 496.475 309.412 496.48 309.727C496.485 310.042 496.552 310.353 496.677 310.642C496.802 310.931 496.983 311.193 497.21 311.412C497.21 311.412 504.051 318.03 507.476 321.144C509.3 322.795 510.957 323.911 512.625 324.51C514.292 325.109 516.205 325.134 517.681 324.136C519.134 323.154 519.847 321.375 519.806 319.711C519.767 318.045 519.138 316.377 518.043 314.706C516.788 312.792 514.314 310.274 511.969 307.896C509.623 305.518 507.514 303.496 507.514 303.496L507.52 303.501Z" fill="black"/>
<path d="M490.096 312.039C489.853 311.838 489.573 311.686 489.271 311.593C488.97 311.5 488.653 311.467 488.339 311.497C488.025 311.526 487.72 311.617 487.441 311.764C487.162 311.911 486.914 312.112 486.713 312.355C486.512 312.598 486.36 312.878 486.268 313.179C486.175 313.481 486.142 313.797 486.172 314.111C486.201 314.425 486.293 314.73 486.44 315.008C486.588 315.287 486.789 315.534 487.032 315.735C487.032 315.735 490.346 318.479 494.224 321.506C498.101 324.533 502.312 327.763 505.074 329.152C507.829 330.547 511.02 330.558 512.926 328.536C514.832 326.511 514.86 323.485 513.738 320.424C513.629 320.128 513.464 319.856 513.25 319.624C513.036 319.392 512.779 319.205 512.493 319.072C512.206 318.94 511.897 318.865 511.581 318.852C511.266 318.839 510.951 318.888 510.655 318.997C510.359 319.105 510.087 319.27 509.855 319.484C509.623 319.697 509.435 319.955 509.302 320.241C509.17 320.527 509.095 320.836 509.082 321.151C509.069 321.466 509.118 321.78 509.227 322.076C509.984 324.144 509.552 325.115 509.428 325.247C509.303 325.379 508.896 325.707 507.246 324.869C507.241 324.869 507.237 324.869 507.232 324.869C505.575 324.037 500.992 320.708 497.177 317.73C493.363 314.751 490.09 312.044 490.09 312.044L490.096 312.039Z" fill="black"/>
<path d="M445.895 309.774C443.957 309.813 441.975 309.98 439.979 310.28C433.614 311.249 416.198 313.775 416.198 313.775C415.568 313.867 415 314.204 414.619 314.714C414.238 315.224 414.075 315.864 414.166 316.493C414.258 317.123 414.596 317.69 415.106 318.071C415.616 318.452 416.257 318.614 416.887 318.523C416.887 318.523 434.27 316.004 440.698 315.026C447.812 313.953 454.95 314.968 459.139 316.959C464.361 319.455 472.725 322.123 478.656 321.239C478.924 321.199 480.188 321.405 481.693 322.112C483.198 322.819 484.966 323.9 486.684 325.052C488.402 326.205 490.077 327.427 491.493 328.44C492.909 329.453 493.799 330.197 495.074 330.714C496.722 331.378 498.983 331.953 501.467 331.324C502.709 331.01 504.182 330.133 504.815 328.582C505.447 327.031 505.181 325.345 504.448 323.587C504.326 323.297 504.149 323.032 503.925 322.81C503.701 322.588 503.436 322.412 503.145 322.292C502.853 322.172 502.54 322.111 502.225 322.112C501.909 322.112 501.597 322.175 501.306 322.297C501.015 322.418 500.751 322.595 500.528 322.819C500.306 323.042 500.129 323.307 500.009 323.598C499.889 323.89 499.828 324.202 499.829 324.517C499.83 324.833 499.893 325.144 500.014 325.435C500.474 326.537 500.316 326.893 500.365 326.772C500.415 326.65 500.615 326.589 500.287 326.673C499.632 326.839 497.577 326.544 496.875 326.263C496.983 326.307 495.667 325.526 494.283 324.536C492.899 323.546 491.179 322.288 489.356 321.065C487.534 319.842 485.614 318.651 483.73 317.766C481.845 316.881 480.019 316.179 477.94 316.488C474.486 317.003 465.617 314.737 461.203 312.627C457.12 310.686 451.712 309.658 445.898 309.775L445.895 309.774Z" fill="black"/>
<path d="M497.912 287.585C496.66 287.543 495.316 287.752 493.972 288.367C490.531 289.943 483.083 291.132 477.779 293.209C469.964 296.289 454.986 295.433 442.196 294.773C429.431 294.142 412.713 293.332 412.713 293.332C412.398 293.317 412.083 293.365 411.787 293.471C411.49 293.577 411.217 293.741 410.983 293.953C410.75 294.165 410.56 294.421 410.426 294.706C410.291 294.991 410.214 295.299 410.199 295.614C410.184 295.929 410.231 296.243 410.337 296.54C410.444 296.837 410.608 297.109 410.82 297.343C411.032 297.576 411.288 297.765 411.573 297.9C411.859 298.034 412.168 298.111 412.483 298.126C412.483 298.126 429.196 298.936 441.957 299.567C454.667 300.223 469.69 301.562 479.551 297.676C483.909 295.969 491.225 294.909 495.991 292.728C497.406 292.079 498.242 292.249 499.502 292.764C500.762 293.28 502.182 294.305 504.029 295.049C504.322 295.166 504.635 295.226 504.951 295.222C505.266 295.219 505.578 295.154 505.868 295.03C506.158 294.907 506.421 294.727 506.642 294.502C506.863 294.277 507.037 294.01 507.155 293.718C507.392 293.128 507.385 292.468 507.136 291.883C506.887 291.298 506.415 290.836 505.825 290.598C504.776 290.176 503.28 289.122 501.322 288.321C500.343 287.921 499.183 287.625 497.931 287.582L497.912 287.585Z" fill="black"/>
<path d="M702.785 226.696C654.607 227.197 629.135 228.074 613.579 229.92C598.022 231.767 592.159 234.765 584.436 239.004C579.834 241.53 565.894 250.068 548.025 261.138C530.155 272.209 508.48 285.747 488.853 298.033C488.314 298.371 487.931 298.91 487.788 299.53C487.646 300.15 487.756 300.802 488.095 301.341C488.433 301.88 488.972 302.262 489.593 302.404C490.213 302.547 490.865 302.437 491.405 302.099C511.029 289.814 532.7 276.28 550.558 265.217C568.415 254.154 582.582 245.496 586.75 243.209C594.44 238.988 599.027 236.482 614.147 234.687C629.267 232.893 654.699 231.995 702.836 231.495C705.151 231.469 706.94 231.695 708.06 232.087C709.18 232.478 709.572 232.859 709.856 233.501C710.424 234.785 710.059 238.583 707.017 245.081C698.588 263.08 693.342 272.996 688.932 279.22C684.523 285.444 681.017 288.058 675.364 291.93C669.942 295.648 633.373 319.036 598.428 341.307C563.484 363.579 529.961 384.876 529.961 384.876C529.695 385.045 529.464 385.265 529.283 385.523C529.101 385.781 528.973 386.072 528.904 386.38C528.835 386.687 528.828 387.005 528.882 387.316C528.937 387.626 529.052 387.923 529.221 388.189C529.39 388.455 529.611 388.685 529.869 388.866C530.127 389.047 530.418 389.175 530.726 389.243C531.034 389.312 531.353 389.319 531.663 389.264C531.974 389.21 532.271 389.095 532.537 388.925C532.537 388.925 566.064 367.628 601.012 345.354C635.961 323.08 672.126 299.972 678.082 295.888C683.819 291.958 688.102 288.704 692.856 281.992C697.611 275.28 702.905 265.189 711.371 247.113C714.601 240.215 715.976 235.457 714.252 231.562C713.39 229.615 711.632 228.249 709.65 227.556C707.668 226.863 705.407 226.667 702.788 226.696H702.785ZM462.818 314.364C445.88 324.992 434.155 332.384 434.155 332.384C433.617 332.724 433.235 333.264 433.095 333.885C432.955 334.505 433.067 335.156 433.407 335.694C433.748 336.232 434.288 336.613 434.909 336.753C435.53 336.894 436.182 336.781 436.72 336.441C436.72 336.441 448.439 329.054 465.372 318.429C465.639 318.261 465.871 318.043 466.054 317.786C466.236 317.529 466.367 317.238 466.437 316.931C466.507 316.623 466.516 316.305 466.463 315.994C466.41 315.683 466.296 315.386 466.128 315.119C465.789 314.58 465.25 314.198 464.629 314.057C464.008 313.915 463.357 314.026 462.818 314.364Z" fill="black"/>
<path fill-rule="evenodd" clip-rule="evenodd" d="M435.438 334.413C435.438 334.413 447.158 327.023 464.094 316.396Z" fill="black"/>
<path d="M310.421 232.565C310.161 232.386 309.869 232.259 309.561 232.193C309.252 232.126 308.934 232.121 308.624 232.177C308.313 232.234 308.017 232.351 307.752 232.522C307.487 232.693 307.258 232.914 307.078 233.173C306.716 233.697 306.577 234.342 306.691 234.968C306.805 235.593 307.163 236.148 307.687 236.51C307.687 236.51 318.884 244.254 332.101 252.929C345.317 261.604 360.418 271.169 368.845 275.055C385.534 282.745 405.427 283.839 415.922 286.629C427.28 289.653 447.361 292.449 461.579 291.656C475.468 290.867 486.569 289.149 486.569 289.149C487.198 289.052 487.762 288.709 488.138 288.195C488.514 287.682 488.671 287.041 488.574 286.412C488.526 286.101 488.417 285.802 488.253 285.532C488.089 285.263 487.873 285.028 487.619 284.842C487.364 284.655 487.075 284.521 486.768 284.446C486.462 284.372 486.143 284.358 485.831 284.407C485.831 284.407 474.947 286.09 461.308 286.865C447.995 287.608 427.838 284.835 417.155 281.991C405.582 278.913 386.362 277.84 370.855 270.695C363.196 267.163 347.898 257.558 334.738 248.92C321.577 240.281 310.421 232.565 310.421 232.565Z" fill="black"/>
<path fill-rule="evenodd" clip-rule="evenodd" d="M631.692 230.851C640.146 230.371 650.507 230.001 663.422 229.699C663.422 229.699 633.421 254.27 626.792 259.851C604.01 279.019 590.026 282.351 581.86 281.981C573.68 281.611 571.676 275.482 576.384 272.739C584.701 267.913 631.692 230.851 631.692 230.851Z" fill="black"/>
<path d="M202.929 534.396C202.39 534.058 201.739 533.946 201.119 534.087C200.498 534.227 199.958 534.608 199.618 535.146C199.618 535.146 185.241 557.919 169.651 584.232C154.061 610.544 137.313 640.13 132.266 654.87C131.684 656.566 130.792 658.08 129.905 659.101C129.054 660.079 128.247 660.429 128.082 660.472C128.052 660.441 127.993 660.415 127.854 660.063C127.502 659.164 127.201 656.986 127.554 653.547C128.309 646.111 129.438 628.522 130.524 611.952C131.067 603.667 131.598 595.65 132.06 589.341C132.52 583.041 132.962 578.223 133.153 577.154C133.153 577.126 134.062 572.283 139.412 565.303C144.778 558.304 154.559 549.425 172.377 542.302C172.968 542.065 173.44 541.604 173.691 541.02C173.942 540.435 173.95 539.775 173.714 539.185C173.597 538.892 173.423 538.625 173.203 538.4C172.983 538.174 172.72 537.994 172.43 537.87C172.14 537.746 171.828 537.68 171.513 537.677C171.198 537.673 170.884 537.731 170.592 537.848C152.055 545.259 141.49 554.699 135.598 562.384C129.706 570.07 128.436 576.251 128.436 576.251C128.431 576.263 128.426 576.274 128.422 576.285C128.071 578.235 127.725 582.655 127.261 588.993C126.798 595.329 126.268 603.351 125.725 611.638C124.639 628.212 123.496 645.909 122.769 653.062C122.374 656.915 122.534 659.667 123.375 661.813C123.795 662.887 124.43 663.844 125.364 664.505C126.297 665.165 127.492 665.42 128.534 665.303C130.619 665.068 132.167 663.812 133.526 662.25C134.884 660.688 136.027 658.691 136.804 656.425C141.419 642.947 158.229 612.922 173.778 586.679C189.328 560.435 203.674 537.708 203.674 537.708C203.842 537.442 203.956 537.145 204.009 536.834C204.063 536.523 204.054 536.205 203.985 535.898C203.915 535.591 203.785 535.3 203.603 535.043C203.421 534.785 203.19 534.566 202.923 534.398L202.929 534.396Z" fill="black"/>
<path d="M232.669 456.069C232.048 455.926 231.397 456.035 230.857 456.372C230.857 456.372 216.392 465.415 201.291 474.823C186.19 484.232 170.222 494.135 167.967 495.431C168.33 495.222 167.674 495.521 166.782 495.677C165.891 495.833 164.631 495.998 163.078 496.167C159.971 496.506 155.68 496.864 150.504 497.287C140.151 498.133 126.235 499.241 110.798 501.015C79.9232 504.562 42.9987 510.722 15.9302 523.012C12.1341 524.734 9.71662 526.286 8.23991 528.226C7.50142 529.196 7.01166 530.346 6.98545 531.544C6.95937 532.742 7.41092 533.857 8.03084 534.709C9.27081 536.414 11.0658 537.405 13.038 538.285C15.0101 539.164 17.2053 539.855 19.2889 540.416C22.9204 541.388 37.5515 546.38 52.4732 552.063C67.3937 557.745 83.0507 564.354 88.6704 568.07C101.225 576.385 113.736 582.166 130.856 580.386C131.17 580.353 131.474 580.259 131.751 580.109C132.029 579.959 132.274 579.756 132.473 579.511C132.672 579.267 132.821 578.985 132.911 578.683C133.001 578.381 133.03 578.064 132.998 577.751C132.965 577.437 132.871 577.133 132.721 576.855C132.571 576.578 132.367 576.333 132.122 576.135C131.877 575.936 131.596 575.787 131.293 575.698C130.991 575.608 130.674 575.578 130.36 575.611C114.515 577.258 103.528 572.152 91.3241 564.069C84.5636 559.598 69.2006 553.299 54.1834 547.58C39.1659 541.861 24.9406 536.961 20.5299 535.78C18.5924 535.258 16.5919 534.617 14.9867 533.9C13.3815 533.184 12.2168 532.316 11.9041 531.887C11.7478 531.672 11.7751 531.654 11.7751 531.646C11.7753 531.632 11.7613 531.507 12.0511 531.129C12.6273 530.372 14.462 528.942 17.9054 527.38C44.0175 515.524 80.6592 509.305 111.333 505.781C126.671 504.019 140.525 502.917 150.887 502.07C156.068 501.646 160.371 501.29 163.587 500.94C165.195 500.764 166.528 500.591 167.6 500.404C168.671 500.217 169.348 500.168 170.35 499.593C173.2 497.954 188.715 488.305 203.821 478.894C218.926 469.483 233.392 460.44 233.392 460.44C233.66 460.273 233.892 460.055 234.075 459.798C234.258 459.541 234.389 459.251 234.46 458.944C234.531 458.637 234.54 458.319 234.488 458.008C234.436 457.697 234.323 457.4 234.156 457.132C233.817 456.594 233.278 456.211 232.657 456.069H232.669Z" fill="black"/>
<path fill-rule="evenodd" clip-rule="evenodd" d="M251.933 478.04C254.321 476.285 256.846 475.188 260.717 477.793C264.6 480.412 267.372 483.415 262.857 486.816C258.342 490.23 231.649 510.084 227.847 512.223C224.046 514.362 217.842 514.115 212.078 509.933C206.849 506.135 249.229 480.015 251.933 478.04Z" fill="black"/>
<path d="M369.336 486.504C368.711 486.382 368.063 486.512 367.535 486.868C367.535 486.868 337.643 506.988 305.015 528.64C272.387 550.291 236.833 573.578 226.206 579.538C203.073 592.493 185.212 593.016 169.458 588.18C169.156 588.087 168.839 588.055 168.525 588.084C168.211 588.114 167.906 588.205 167.627 588.353C167.348 588.5 167.102 588.701 166.901 588.944C166.699 589.187 166.548 589.467 166.456 589.768C166.363 590.069 166.331 590.386 166.36 590.7C166.39 591.014 166.482 591.319 166.629 591.597C166.777 591.876 166.979 592.123 167.222 592.324C167.466 592.524 167.746 592.675 168.048 592.767C184.901 597.941 204.534 597.177 228.557 583.724C239.834 577.399 275.028 554.3 307.671 532.638C340.315 510.975 370.218 490.85 370.218 490.85C370.746 490.495 371.111 489.944 371.233 489.32C371.355 488.696 371.224 488.049 370.869 487.521C370.693 487.26 370.467 487.035 370.204 486.861C369.941 486.687 369.646 486.566 369.336 486.506V486.504Z" fill="black"/>
</svg>
